<svg width="210" height="66" viewBox="0 0 210 66" fill="none" xmlns="http://www.w3.org/2000/svg">
<path d="M166.727 2.78377C164.891 1.09339 162.014 0.173938 158.096 0.0183385C156.093 -0.0594613 154.068 0.110284 152.029 0.527574C149.982 0.944864 148.139 1.68043 146.486 2.7484C144.832 3.80931 143.463 5.20971 142.363 6.94959C141.271 8.68948 140.666 10.8396 140.564 13.407C140.47 15.6985 140.79 17.587 141.526 19.0793C142.261 20.5716 143.208 21.8023 144.381 22.7783C145.554 23.7544 146.828 24.5324 148.205 25.1194C149.581 25.7064 150.863 26.2722 152.05 26.8098C153.238 27.3473 154.221 27.9273 154.986 28.5567C155.75 29.1791 156.115 29.9854 156.078 30.9685C156.056 31.5202 155.903 31.987 155.612 32.376C155.321 32.7579 154.957 33.062 154.512 33.2813C154.068 33.5005 153.558 33.6491 152.99 33.7269C152.422 33.8047 151.846 33.833 151.264 33.8117C149.8 33.7552 148.532 33.4723 147.447 32.956C146.362 32.4396 145.415 31.8668 144.599 31.2444C143.791 30.622 143.07 30.0561 142.443 29.5611C141.817 29.0589 141.213 28.8043 140.63 28.776C139.792 28.7406 139.202 29.2923 138.838 30.4239C138.481 31.5556 138.248 33.4227 138.139 36.0326C138.11 36.662 138.459 37.3764 139.18 38.1756C139.902 38.9748 140.907 39.7245 142.189 40.4247C143.478 41.1249 145 41.7261 146.755 42.2283C148.511 42.7304 150.433 43.0204 152.517 43.1053C154.935 43.1972 157.069 42.9638 158.904 42.4051C160.747 41.8463 162.284 41.0259 163.515 39.9438C164.753 38.8617 165.7 37.5744 166.37 36.0821C167.033 34.5827 167.404 32.9701 167.477 31.2302C167.564 29.0165 167.215 27.1775 166.421 25.7064C165.627 24.2353 164.6 22.9905 163.347 21.972C162.094 20.9536 160.718 20.119 159.217 19.4683C157.717 18.8176 156.333 18.1811 155.066 17.5587C153.798 16.9363 152.75 16.2714 151.919 15.5712C151.089 14.871 150.703 13.9799 150.747 12.919C150.798 11.6954 151.358 10.7193 152.436 9.99086C153.507 9.26237 154.716 8.92288 156.049 8.97239C157.01 9.00775 157.753 9.24823 158.278 9.67966C158.802 10.1182 159.181 10.6345 159.407 11.2357C159.633 11.8368 159.764 12.4592 159.8 13.0887C159.836 13.7253 159.844 14.2345 159.829 14.6306C159.815 15.062 159.902 15.352 160.106 15.5005C160.31 15.649 160.783 15.7339 161.534 15.7622C163.952 15.8541 165.831 15.3449 167.171 14.2274C168.511 13.1099 169.225 11.4478 169.32 9.24115C169.429 6.6384 168.562 4.48829 166.734 2.79791L166.727 2.78377Z" fill="#F7C218"/>
<path d="M200.18 14.8854C198.002 12.3675 194.288 11.0095 189.036 10.8115C185.445 10.67 182.43 11.1015 179.99 12.0917C177.55 13.0818 175.562 14.4398 174.025 16.1585C172.488 17.8771 171.374 19.8646 170.682 22.1066C169.983 24.3557 169.589 26.6614 169.487 29.0308C169.4 31.0819 169.553 33.0198 169.939 34.8304C170.325 36.6481 171.053 38.2465 172.124 39.6328C173.195 41.019 174.666 42.1295 176.53 42.9782C178.395 43.8198 180.769 44.3008 183.646 44.4069C186.276 44.5059 188.57 44.2796 190.537 43.7208C192.503 43.1621 194.193 42.377 195.613 41.3656C197.033 40.3542 198.221 39.1731 199.175 37.8293C200.129 36.4854 200.894 35.0921 201.476 33.6493C202.059 32.2064 202.474 30.7495 202.722 29.2783C202.97 27.8072 203.122 26.4563 203.166 25.2328C203.348 20.8547 202.35 17.4033 200.173 14.8854H200.18ZM192.518 25.1691C192.481 26.0744 192.343 27.199 192.095 28.5357C191.855 29.8725 191.447 31.1385 190.872 32.3408C190.296 33.5432 189.524 34.5617 188.555 35.3962C187.579 36.2308 186.363 36.6198 184.906 36.5632C183.282 36.4996 182.051 35.8418 181.228 34.5829C180.405 33.3239 180.041 31.3931 180.15 28.7903C180.187 27.9628 180.296 26.9514 180.493 25.7491C180.689 24.5538 181.046 23.4151 181.571 22.3542C182.095 21.2862 182.845 20.3879 183.814 19.6524C184.783 18.9168 186.057 18.5844 187.645 18.641C189.524 18.7117 190.821 19.327 191.549 20.4799C192.277 21.6327 192.598 23.1958 192.518 25.1691Z" fill="#F7C218"/>
<path d="M204.266 6.61717C204.266 6.61717 204.339 6.24231 203.021 5.81795C201.702 5.38651 199.532 5.1319 199.532 5.1319C199.532 5.1319 196.218 10.4223 196.32 10.7193C196.422 11.0164 197.019 11.7802 198.111 12.1622C198.111 12.1622 198.512 11.9995 198.818 11.752C199.124 11.4973 204.055 8.04585 204.259 6.61717H204.266Z" fill="black"/>
<path d="M207.835 10.6344C207.179 9.91301 206.065 8.76723 205.533 8.78138C205.533 8.78138 199.67 12.049 199.575 12.1056C199.131 12.9048 200.413 14.5315 201.076 14.2415C210.712 12.7633 208.599 11.5114 207.835 10.6344Z" fill="black"/>
<path d="M208.33 14.8353L202.7 15.1324C201.302 17.4593 204.295 17.4239 205.431 17.7846C206.713 17.9968 208.76 18.789 209.182 18.018C209.481 17.0349 208.6 14.7009 208.33 14.8424V14.8353Z" fill="black"/>
<path d="M29.0248 4.32579C27.8521 3.15172 26.3226 2.25348 24.4289 1.63108C22.5352 1.01576 20.2773 0.704559 17.6479 0.704559C16.7448 0.704559 15.696 0.73285 14.5015 0.796505C13.307 0.853086 12.0761 0.923813 10.8014 1.00869C9.52683 1.08649 8.25221 1.15721 6.9776 1.22087C5.70299 1.27745 4.53034 1.31281 3.45967 1.31281C3.25573 1.31281 3.04451 1.38354 2.84057 1.52499C2.63663 1.66645 2.53466 1.89277 2.53466 2.21105C2.53466 2.81223 2.52738 3.37097 2.50553 3.88728C2.48368 4.40359 2.46183 4.97648 2.44726 5.5918C2.42541 6.2142 2.38899 6.92854 2.32344 7.74898C2.26517 8.56941 2.19234 9.58788 2.10493 10.8044C2.02481 12.0209 1.90828 13.4779 1.76261 15.1753C1.61694 16.8728 1.44213 18.8956 1.2382 21.2579C1.07068 23.1746 0.917722 25.0488 0.772052 26.8877C0.626382 28.7266 0.495278 30.4241 0.371459 31.9801C0.247639 33.5361 0.152954 34.887 0.0946856 36.0257C0.0364175 37.1644 0 37.9919 0 38.5082C0 40.2622 0.480711 41.5919 1.44942 42.4901C2.41812 43.3884 4.07148 43.841 6.41677 43.841H9.25734C9.6288 43.841 9.87644 43.7703 10.0003 43.6288C10.1241 43.4874 10.2042 43.2611 10.2479 42.9428L11.1146 31.9235C12.3455 32.2842 13.8459 32.461 15.6158 32.461C18.5729 32.461 21.1222 31.9589 23.2635 30.9616C25.3976 29.9644 27.1456 28.6276 28.5076 26.9514C29.8624 25.2752 30.8602 23.3514 31.5012 21.173C32.1348 18.9946 32.4553 16.7313 32.4553 14.3761C32.4553 12.2189 32.1785 10.3022 31.625 8.62599C31.0714 6.94976 30.2047 5.52107 29.0321 4.347L29.0248 4.32579ZM21.7194 17.6508C21.5519 18.6905 21.2241 19.6877 20.7361 20.6425C20.2409 21.5973 19.5562 22.4107 18.6676 23.0685C17.7863 23.7262 16.621 24.0586 15.1861 24.0586C14.6908 24.0586 14.1446 24.0304 13.5546 23.9667C12.9574 23.9101 12.3528 23.797 11.7337 23.6343C11.9377 20.9962 12.1052 18.4854 12.229 16.0877C12.3528 13.6901 12.4548 11.6531 12.5349 9.97688C13.2778 9.89908 13.977 9.82836 14.6326 9.7647C15.2881 9.70812 15.8853 9.67276 16.4243 9.67276C18.522 9.67276 19.9714 10.1254 20.7726 11.0236C21.5737 11.9219 21.9743 13.2303 21.9743 14.949C21.9743 15.7058 21.8942 16.604 21.7267 17.6437L21.7194 17.6508Z" fill="#BF181D"/>
<path d="M65.6898 36.0396C65.3183 35.9618 64.8959 35.8416 64.4225 35.6789C63.949 35.5233 63.5266 35.2263 63.1551 34.809C62.7837 34.3917 62.6016 33.6844 62.6016 32.6801C62.6016 32.2416 62.6526 31.4636 62.7546 30.3461C62.8565 29.2286 62.9803 28.0404 63.126 26.7815C63.2717 25.5225 63.3955 24.3272 63.4975 23.1885C63.5994 22.0498 63.6504 21.2647 63.6504 20.8262C63.6504 17.4738 62.6234 14.8781 60.5695 13.0392C58.5156 11.2003 55.2016 10.2808 50.6421 10.2808C48.2968 10.2808 46.2428 10.5213 44.4729 11.0022C42.7031 11.4832 41.2318 12.1339 40.0664 12.9472C38.8938 13.7677 38.0125 14.7366 37.4152 15.8541C36.818 16.9716 36.5194 18.1527 36.5194 19.3905C36.5194 22.4671 38.617 24.0019 42.8123 24.0019C43.4314 24.0019 43.883 23.9524 44.167 23.8534C44.4511 23.7543 44.6405 23.5209 44.7206 23.1673C44.8881 22.4459 45.0702 21.7881 45.2741 21.194C45.4781 20.5928 45.7476 20.0836 46.0753 19.6663C46.4031 19.249 46.8328 18.9166 47.3718 18.6761C47.9035 18.4357 48.6027 18.3154 49.4694 18.3154C51.0281 18.3154 52.0624 18.6973 52.5504 19.4541C53.0456 20.2109 53.2933 21.2294 53.2933 22.5095C53.2933 22.948 53.286 23.3158 53.2641 23.62C53.2423 23.917 53.2132 24.2919 53.1695 24.7304C46.6726 24.893 41.7562 25.9893 38.4276 28.0262C35.0991 30.0632 33.4312 32.8781 33.4312 36.4711C33.4312 37.9068 33.6642 39.1375 34.1377 40.1559C34.6111 41.1744 35.2447 42.0019 36.0532 42.6385C36.8544 43.275 37.8013 43.7347 38.8938 44.0176C39.9863 44.2935 41.1444 44.4349 42.3753 44.4349C44.9245 44.4349 46.993 43.9186 48.5736 42.8789C50.1541 41.8392 51.4433 40.6227 52.4265 39.2223C52.7543 40.8632 53.4098 42.1363 54.4004 43.0558C55.3836 43.9752 56.8695 44.4349 58.8433 44.4349C60.2417 44.4349 61.4217 44.1945 62.3904 43.7135C63.3591 43.2326 64.1166 42.6172 64.6701 41.8534C65.2237 41.0966 65.6243 40.255 65.8719 39.3355C66.1195 38.4161 66.2434 37.5178 66.2434 36.6408C66.2434 36.3225 66.0613 36.1245 65.6898 36.0396ZM51.9385 32.6235C51.5671 33.4652 51.1228 34.1724 50.6129 34.7524C50.0958 35.3324 49.5131 35.7638 48.8576 36.0396C48.2021 36.3225 47.5393 36.4569 46.8838 36.4569C46.1846 36.4569 45.5363 36.2801 44.9391 35.9194C44.3418 35.5587 44.0432 34.9221 44.0432 34.0027C44.0432 33.2035 44.2909 32.5245 44.7861 31.9657C45.2814 31.407 45.9297 30.9543 46.7308 30.6149C47.532 30.2754 48.4497 30.0278 49.4767 29.8652C50.5037 29.7096 51.5525 29.6247 52.6232 29.6247C52.5431 30.7846 52.3173 31.7819 51.9458 32.6164L51.9385 32.6235Z" fill="#BF181D"/>
<path d="M100.571 12.1691C99.6018 11.3133 98.0504 10.8818 95.9164 10.8818H93.0758C92.5805 10.8818 92.311 11.0799 92.2746 11.483C92.2746 11.6032 92.2673 11.872 92.2455 12.2893C92.2236 12.7066 92.1945 13.138 92.1508 13.5765C92.1071 14.015 92.078 14.404 92.0561 14.7435C92.0343 15.083 92.027 15.2315 92.027 15.1962C91.823 14.5172 91.5244 13.8807 91.1311 13.2795C90.7378 12.6783 90.228 12.162 89.587 11.7235C88.9461 11.285 88.1886 10.9384 87.3073 10.6767C86.426 10.415 85.3626 10.2877 84.1317 10.2877C81.1746 10.2877 78.7419 10.8748 76.8554 12.0559C74.9617 13.237 73.4759 14.7223 72.3834 16.5188C71.2908 18.3152 70.5406 20.2815 70.1328 22.4174C69.7249 24.5534 69.5137 26.5832 69.5137 28.4999C69.5137 30.8552 69.7904 32.885 70.344 34.5825C70.8975 36.2799 71.6696 37.6874 72.6601 38.8049C73.6434 39.9224 74.8379 40.7428 76.2364 41.2591C77.6348 41.7754 79.1789 42.0371 80.8614 42.0371C83.0828 42.0371 84.9329 41.6057 86.4114 40.7499C87.89 39.8941 89.1427 38.5644 90.177 36.7679C90.177 40.4033 89.6307 43.19 88.5455 45.1208C87.4529 47.0587 85.552 48.0277 82.8425 48.0277C81.2765 48.0277 80.1257 47.8297 79.3901 47.4265C78.6472 47.0304 78.0718 46.5778 77.6639 46.0756C77.2488 45.5735 76.8846 45.1279 76.5568 44.7247C76.2291 44.3287 75.7119 44.1236 75.0127 44.1236C74.4373 44.1236 73.8328 44.2155 73.1918 44.3923C72.5509 44.5691 71.9682 44.845 71.4365 45.1986C70.9048 45.5593 70.4678 46.019 70.1401 46.5778C69.8123 47.1365 69.6448 47.7943 69.6448 48.5511C69.6448 49.3927 69.9215 50.2273 70.4751 51.069C71.0286 51.9106 71.8444 52.6532 72.9078 53.3181C73.9785 53.9758 75.3259 54.5063 76.9501 54.9024C78.5744 55.2984 80.4753 55.5035 82.6531 55.5035C85.5301 55.5035 87.9701 55.2065 89.9585 54.6053C91.9542 54.0041 93.5857 53.2049 94.8603 52.2077C96.1349 51.2104 97.1182 50.0717 97.8174 48.7915C98.5166 47.5114 99.0119 46.1959 99.2959 44.8379C99.58 43.4799 99.8495 41.9027 100.097 40.1063C100.345 38.3098 100.571 36.4355 100.774 34.4764C100.978 32.5172 101.168 30.5722 101.328 28.6343C101.488 26.6964 101.627 24.9282 101.729 23.3369C101.831 21.7384 101.903 20.3734 101.947 19.2347C101.991 18.096 102.005 17.3675 102.005 17.0492C102.005 14.6516 101.525 13.0249 100.556 12.1691H100.571ZM91.2914 27.5946C91.1675 28.6343 90.8762 29.6316 90.4246 30.5864C89.973 31.5412 89.3248 32.3616 88.4799 33.0406C87.635 33.7196 86.477 34.0591 84.9984 34.0591C83.3086 34.0591 82.1214 33.5711 81.4222 32.595C80.723 31.619 80.3734 30.1267 80.3734 28.1322C80.3734 27.531 80.4316 26.6823 80.5555 25.586C80.6793 24.4897 80.9561 23.3934 81.3858 22.2901C81.8155 21.1938 82.4637 20.2461 83.3305 19.4469C84.1972 18.6477 85.3844 18.2516 86.9067 18.2516C88.4289 18.2516 89.5652 18.7608 90.3299 19.7793C91.0874 20.7978 91.4734 22.5023 91.4734 24.8999C91.4734 25.6567 91.4152 26.5549 91.2914 27.5946Z" fill="#BF181D"/>
<path d="M137.855 36.0396C137.483 35.9618 137.061 35.8416 136.588 35.6789C136.114 35.5233 135.692 35.2263 135.32 34.809C134.949 34.3917 134.767 33.6844 134.767 32.6801C134.767 32.2416 134.818 31.4636 134.92 30.3461C135.022 29.2286 135.145 28.0404 135.291 26.7815C135.437 25.5225 135.561 24.3272 135.663 23.1885C135.764 22.0498 135.815 21.2647 135.815 20.8262C135.815 17.4738 134.788 14.8781 132.735 13.0392C130.681 11.2003 127.367 10.2808 122.807 10.2808C120.462 10.2808 118.408 10.5213 116.638 11.0022C114.868 11.4832 113.397 12.1339 112.231 12.9472C111.059 13.7677 110.178 14.7366 109.58 15.8541C108.983 16.9716 108.684 18.1527 108.684 19.3905C108.684 22.4671 110.782 24.0019 114.977 24.0019C115.596 24.0019 116.048 23.9524 116.332 23.8534C116.616 23.7543 116.806 23.5209 116.886 23.1673C117.046 22.4459 117.235 21.7881 117.439 21.194C117.643 20.5928 117.913 20.0836 118.24 19.6663C118.568 19.249 118.998 18.9166 119.537 18.6761C120.069 18.4357 120.768 18.3154 121.634 18.3154C123.193 18.3154 124.227 18.6973 124.715 19.4541C125.211 20.2109 125.458 21.2294 125.458 22.5095C125.458 22.948 125.451 23.3158 125.429 23.62C125.407 23.917 125.378 24.2919 125.334 24.7304C118.838 24.893 113.921 25.9893 110.593 28.0262C107.264 30.0632 105.596 32.8781 105.596 36.4711C105.596 37.9068 105.829 39.1375 106.303 40.1559C106.776 41.1744 107.41 42.0019 108.218 42.6385C109.019 43.275 109.966 43.7347 111.059 44.0176C112.151 44.2935 113.309 44.4349 114.54 44.4349C117.09 44.4349 119.158 43.9186 120.739 42.8789C122.319 41.8392 123.608 40.6227 124.592 39.2223C124.919 40.8632 125.575 42.1363 126.565 43.0558C127.549 43.9752 129.035 44.4349 131.008 44.4349C132.407 44.4349 133.587 44.1945 134.555 43.7135C135.524 43.2326 136.282 42.6172 136.835 41.8534C137.389 41.0966 137.789 40.255 138.037 39.3355C138.285 38.4161 138.408 37.5178 138.408 36.6408C138.408 36.3225 138.226 36.1245 137.855 36.0396ZM124.104 32.6235C123.732 33.4652 123.288 34.1724 122.778 34.7524C122.261 35.3324 121.678 35.7638 121.023 36.0396C120.367 36.3225 119.704 36.4569 119.049 36.4569C118.35 36.4569 117.701 36.2801 117.104 35.9194C116.507 35.5587 116.208 34.9221 116.208 34.0027C116.208 33.2035 116.456 32.5245 116.951 31.9657C117.446 31.407 118.095 30.9543 118.896 30.6149C119.697 30.2754 120.615 30.0278 121.642 29.8652C122.669 29.7096 123.718 29.6247 124.788 29.6247C124.708 30.7846 124.482 31.7819 124.111 32.6164L124.104 32.6235Z" fill="#BF181D"/>
<path d="M105.334 55.1363C104.926 55.5606 104.729 56.2608 104.729 57.2368V57.9936H103.622V59.776H104.729V65.8443L105.895 65.816L107.075 65.8443V59.776H109.019V57.9936H107.075V57.2368C107.075 56.6498 107.388 56.3669 108.007 56.374L108.954 56.3881L108.998 56.4023L109.027 56.3881L109.041 54.5139H107.381C106.426 54.5139 105.742 54.719 105.327 55.1363H105.334Z" fill="black"/>
<path d="M116.609 64.0904C116.543 64.0479 116.514 63.9065 116.514 63.666V60.9642C116.514 58.8778 115.414 57.8381 113.215 57.8381C111.671 57.8381 110.571 58.3049 109.915 59.2456L111.765 60.4692C112.108 59.9528 112.588 59.6982 113.215 59.6982C113.841 59.6982 114.176 59.7972 114.176 60.0024C114.176 60.554 113.375 60.9855 111.765 61.2825C111.124 61.4169 110.6 61.6786 110.192 62.0676C109.799 62.4707 109.602 62.9305 109.602 63.4538C109.602 65.1442 110.469 65.9929 112.202 65.9929C113.164 65.9929 113.863 65.6959 114.3 65.1018C114.402 65.4342 114.671 65.6464 115.094 65.7383C115.429 65.8091 116.208 65.8373 117.439 65.8161V64.1399C116.951 64.1611 116.674 64.1399 116.602 64.0975L116.609 64.0904ZM114.183 62.9092C114.103 63.9136 113.681 64.4228 112.923 64.4228C112.282 64.4228 111.962 64.0762 111.962 63.3831C111.962 63.1214 112.363 62.9022 113.156 62.7324C113.564 62.6546 113.899 62.5485 114.183 62.4141V62.9092Z" fill="black"/>
<path d="M121.678 64.1187C120.629 64.1187 120.105 63.3831 120.105 61.912C120.105 60.4409 120.629 59.6134 121.678 59.6134C121.999 59.6134 122.53 60.0024 123.281 60.7733L124.963 59.2951L124.825 59.1466C124.701 58.998 124.461 58.8 124.111 58.5595C123.383 58.0786 122.574 57.8381 121.686 57.8381C120.411 57.8381 119.42 58.1635 118.714 58.8212C117.956 59.5285 117.578 60.5611 117.578 61.9191C117.578 63.277 117.956 64.3096 118.714 65.0169C119.42 65.6747 120.411 66 121.686 66C123.244 66 124.337 65.5757 124.985 64.7199L123.259 63.1921C122.793 63.8145 122.268 64.1257 121.686 64.1257L121.678 64.1187Z" fill="black"/>
<path d="M126.689 54.0184C126.267 54.0184 125.895 54.167 125.589 54.464C125.284 54.7611 125.131 55.1147 125.131 55.532C125.131 55.9493 125.284 56.3029 125.589 56.6C125.895 56.897 126.26 57.0456 126.689 57.0456C127.119 57.0456 127.483 56.897 127.789 56.6C128.095 56.3029 128.248 55.9493 128.248 55.532C128.248 55.1147 128.095 54.7611 127.789 54.464C127.483 54.167 127.119 54.0184 126.689 54.0184Z" fill="black"/>
<path d="M127.855 57.986H126.689V58.0214L125.524 57.986L125.509 58.0214L125.524 58.0638V65.766L125.509 65.7943L125.524 65.8367L126.689 65.8084L127.855 65.8367L127.869 65.7943L127.855 65.766V57.986Z" fill="black"/>
<path d="M131.351 54.5139H130.185V54.5421L129.02 54.5139L129.005 54.5421L129.02 54.5917V65.7665L129.005 65.7948L129.02 65.8373L130.185 65.809L131.351 65.8373L131.373 65.7948L131.351 65.7665V54.5139Z" fill="black"/>
<path d="M133.689 54.0184C133.266 54.0184 132.895 54.167 132.589 54.464C132.283 54.7611 132.13 55.1147 132.13 55.532C132.13 55.9493 132.283 56.3029 132.589 56.6C132.895 56.897 133.259 57.0456 133.689 57.0456C134.119 57.0456 134.483 56.897 134.789 56.6C135.095 56.3029 135.247 55.9493 135.247 55.532C135.247 55.1147 135.095 54.7611 134.789 54.464C134.483 54.167 134.119 54.0184 133.689 54.0184Z" fill="black"/>
<path d="M134.854 57.986H133.689V58.0214L132.523 57.986L132.501 58.0214L132.523 58.0638V65.766L132.501 65.7943L132.523 65.8367L133.689 65.8084L134.854 65.8367L134.869 65.7943L134.854 65.766V57.986Z" fill="black"/>
<path d="M138.663 54.4996H136.333V57.9865H135.539V59.7688H136.333V63.5739C136.333 64.5004 136.42 65.0875 136.595 65.3421C136.821 65.6745 137.36 65.8372 138.212 65.8372H140.106V63.9771H139.232C138.969 63.9771 138.809 63.9488 138.736 63.8851C138.685 63.8427 138.656 63.7366 138.656 63.5668V59.7617H140.106V57.9794H138.656V54.4926L138.663 54.4996Z" fill="black"/>
<path d="M147.746 64.0904C147.68 64.0479 147.651 63.9065 147.651 63.666V60.9642C147.651 58.8778 146.551 57.8381 144.352 57.8381C142.808 57.8381 141.708 58.3049 141.052 59.2456L142.902 60.4692C143.245 59.9528 143.725 59.6982 144.352 59.6982C144.978 59.6982 145.313 59.7972 145.313 60.0024C145.313 60.554 144.512 60.9855 142.902 61.2825C142.261 61.4169 141.737 61.6786 141.329 62.0676C140.936 62.4707 140.739 62.9305 140.739 63.4538C140.739 65.1442 141.606 65.9929 143.339 65.9929C144.301 65.9929 145 65.6959 145.437 65.1018C145.539 65.4342 145.808 65.6464 146.231 65.7383C146.566 65.8091 147.345 65.8373 148.576 65.8161V64.1399C148.088 64.1611 147.811 64.1399 147.738 64.0975L147.746 64.0904ZM145.32 62.9092C145.24 63.9136 144.818 64.4228 144.06 64.4228C143.419 64.4228 143.099 64.0762 143.099 63.3831C143.099 63.1214 143.499 62.9022 144.293 62.7324C144.701 62.6546 145.036 62.5485 145.32 62.4141V62.9092Z" fill="black"/>
<path d="M157.382 57.838C156.501 57.838 155.794 58.1139 155.27 58.6655V54.5139L153.515 54.528L152.925 54.5139V65.8373L154.09 65.809H155.27V65.1583C155.802 65.71 156.501 65.9858 157.382 65.9858C158.329 65.9858 159.079 65.6109 159.655 64.8683C160.237 64.1115 160.529 63.1284 160.529 61.9119C160.529 60.6954 160.237 59.7052 159.655 58.9555C159.086 58.2129 158.329 57.838 157.382 57.838ZM157.615 63.5174C157.353 63.9206 157.018 64.1186 156.603 64.1186C155.714 64.1186 155.263 63.383 155.263 61.9119C155.263 60.4408 155.707 59.7052 156.603 59.7052C157.018 59.7052 157.353 59.9033 157.615 60.3064C157.863 60.7095 157.987 61.24 157.987 61.9048C157.987 62.5697 157.863 63.1001 157.615 63.5033V63.5174Z" fill="black"/>
<path d="M168.336 58.0214H167.171L166.006 57.9931L165.991 58.0214L166.006 58.0638V62.0175C166.006 62.5904 165.882 63.0572 165.634 63.4037C165.387 63.7574 165.059 63.9342 164.651 63.9342C164.09 63.9342 163.813 63.4886 163.813 62.5904V58.0143H162.633L161.468 57.986V62.5904C161.468 63.7715 161.636 64.6132 161.978 65.1295C162.349 65.7023 162.998 65.9923 163.923 65.9923C164.848 65.9923 165.51 65.5609 166.006 64.6909V65.8367L167.746 65.8226L168.336 65.8367L168.351 65.7943L168.336 65.766V58.0214Z" fill="black"/>
<path d="M175.94 54.5139H172.889L172.175 56.7771H174.302L175.94 54.5139Z" fill="black"/>
<path d="M173.078 64.1187C172.291 64.1187 171.883 63.4326 171.847 62.0676H177.164C177.164 59.2456 175.86 57.8381 173.245 57.8381C172.022 57.8381 171.075 58.1635 170.398 58.8212C169.669 59.5285 169.312 60.5611 169.312 61.9191C169.312 63.277 169.662 64.3096 170.354 65.0169C170.995 65.6747 171.905 66 173.078 66C175.03 66 176.283 65.5615 176.843 64.6845L174.979 63.3124C174.644 63.857 174.017 64.1257 173.085 64.1257L173.078 64.1187ZM173.245 59.6204C173.864 59.6204 174.309 59.9104 174.564 60.4974H172.058C172.298 59.9104 172.692 59.6204 173.238 59.6204H173.245Z" fill="black"/>
<path d="M179.706 63.2836C179.4 62.9865 179.036 62.838 178.606 62.838C178.177 62.838 177.812 62.9865 177.506 63.2836C177.201 63.5807 177.048 63.9343 177.048 64.3516C177.048 64.7689 177.201 65.1225 177.506 65.4196C177.812 65.7166 178.177 65.8651 178.606 65.8651C179.036 65.8651 179.4 65.7166 179.706 65.4196C180.012 65.1225 180.165 64.7689 180.165 64.3516C180.165 63.9343 180.012 63.5807 179.706 63.2836Z" fill="black"/>
<path d="M179.699 61.3885L180.012 54.5139H177.273L177.492 61.3885H179.699Z" fill="black"/>
</svg>
