<svg width="112" height="29" viewBox="0 0 112 29" fill="none" xmlns="http://www.w3.org/2000/svg">
<path d="M17.6756 15.2509C17.6476 12.2189 20.2184 10.7438 20.336 10.6751C18.88 8.60267 16.6233 8.3195 15.8303 8.29692C13.935 8.10219 12.0965 9.40419 11.131 9.40419C10.1462 9.40419 8.65941 8.31574 7.05699 8.34772C4.99495 8.37877 3.06588 9.54436 2.00787 11.3544C-0.175581 15.0449 1.45286 20.4683 3.54477 23.4515C4.59121 24.9124 5.81398 26.5437 7.41448 26.4863C8.98028 26.4233 9.56517 25.5117 11.4547 25.5117C13.327 25.5117 13.8762 26.4863 15.5085 26.4496C17.189 26.4233 18.247 24.9821 19.2568 23.5079C20.4661 21.8334 20.9517 20.1842 20.971 20.0996C20.9315 20.0864 17.7074 18.8851 17.6756 15.2509Z" fill="#272727"/>
<path d="M14.5921 6.33452C15.4343 5.30628 16.0105 3.90738 15.8506 2.48779C14.6316 2.54047 13.1073 3.31095 12.2294 4.31661C11.4528 5.2028 10.759 6.65531 10.9383 8.02128C12.3075 8.121 13.7134 7.34677 14.5921 6.33452Z" fill="#272727"/>
<path d="M59.9241 1.72852C60.1948 1.72852 60.4137 1.77439 60.5804 1.86523C60.747 1.95425 60.8772 2.05842 60.97 2.17773C61.0647 2.297 61.1376 2.40229 61.1888 2.49316H61.2513V1.78613H62.0833V6.24609C62.0832 6.6208 61.9966 6.92852 61.8225 7.16895C61.6483 7.40948 61.4119 7.58759 61.1145 7.70312C60.8191 7.81863 60.4857 7.87695 60.1145 7.87695C59.7681 7.87694 59.4699 7.83108 59.22 7.74023C58.972 7.64935 58.7688 7.52945 58.6116 7.37988C58.4544 7.23026 58.3377 7.06573 58.26 6.8877L58.9895 6.58691C59.0407 6.67023 59.1094 6.7578 59.1946 6.85059C59.2817 6.94525 59.3985 7.0265 59.5462 7.09277C59.6958 7.15906 59.8885 7.19238 60.1233 7.19238C60.4451 7.19237 60.711 7.11314 60.9212 6.95605C61.1314 6.80077 61.2366 6.55275 61.2366 6.21191V5.35352H61.1829C61.1318 5.44627 61.0577 5.54953 60.9612 5.66309C60.8666 5.77666 60.7361 5.87568 60.5696 5.95898C60.4029 6.04232 60.1853 6.08398 59.9182 6.08398C59.5737 6.08392 59.263 6.00369 58.9866 5.84277C58.7121 5.67993 58.4942 5.4402 58.3333 5.12402C58.1742 4.80584 58.095 4.41421 58.095 3.9502C58.095 3.48628 58.1732 3.08822 58.3304 2.75684C58.4894 2.42564 58.7074 2.17218 58.9837 1.99609C59.2601 1.81811 59.5738 1.72856 59.9241 1.72852ZM37.8665 1.72852C38.0407 1.72852 38.2261 1.74935 38.4212 1.79102C38.618 1.8308 38.8016 1.90483 38.972 2.0127C39.1442 2.12056 39.285 2.27507 39.3948 2.47559C39.5047 2.67445 39.5598 2.93377 39.5598 3.25195V6.14941H38.7307V5.55273H38.6966C38.6416 5.66258 38.5593 5.77089 38.4495 5.87695C38.3397 5.98299 38.198 6.07056 38.0257 6.14062C37.8534 6.21065 37.647 6.24609 37.4065 6.24609C37.1301 6.24608 36.88 6.19502 36.6565 6.09277C36.433 5.98861 36.256 5.83759 36.1253 5.64062C35.9965 5.44368 35.9319 5.20194 35.9319 4.91602C35.932 4.66996 35.9799 4.46761 36.0745 4.30859C36.1691 4.14963 36.2965 4.02345 36.4573 3.93066C36.6182 3.8379 36.7986 3.76805 36.9973 3.7207C37.1962 3.67335 37.3993 3.63693 37.6057 3.6123C37.8668 3.58203 38.0787 3.55701 38.2415 3.53809C38.4042 3.51727 38.5231 3.48485 38.597 3.43945C38.6707 3.39404 38.7072 3.31988 38.7073 3.21777V3.19727C38.7072 2.94933 38.6374 2.7574 38.4973 2.62109C38.3591 2.48473 38.1528 2.41602 37.8782 2.41602C37.5924 2.41602 37.3672 2.47973 37.2024 2.60645C37.0395 2.73145 36.9261 2.871 36.8636 3.02441L36.0657 2.84277C36.1604 2.57762 36.2989 2.36307 36.4807 2.2002C36.6643 2.03566 36.8752 1.91661 37.1136 1.84277C37.3521 1.76705 37.6034 1.72855 37.8665 1.72852ZM55.4602 1.72852C55.6345 1.72852 55.8198 1.74935 56.0149 1.79102C56.2117 1.8308 56.3954 1.90483 56.5657 2.0127C56.7379 2.12056 56.8787 2.27507 56.9886 2.47559C57.0984 2.67445 57.1536 2.93377 57.1536 3.25195V6.14941H56.3245V5.55273H56.2903C56.2354 5.66258 56.1531 5.77089 56.0432 5.87695C55.9334 5.98299 55.7917 6.07056 55.6194 6.14062C55.4471 6.21065 55.2407 6.24609 55.0003 6.24609C54.7238 6.24608 54.4737 6.19502 54.2503 6.09277C54.0268 5.98861 53.8497 5.83759 53.719 5.64062C53.5903 5.44368 53.5257 5.20194 53.5257 4.91602C53.5257 4.66996 53.5736 4.46761 53.6682 4.30859C53.7629 4.14963 53.8902 4.02345 54.0511 3.93066C54.212 3.8379 54.3923 3.76805 54.5911 3.7207C54.79 3.67335 54.9931 3.63693 55.1995 3.6123C55.4606 3.58203 55.6725 3.55701 55.8352 3.53809C55.998 3.51727 56.1168 3.48485 56.1907 3.43945C56.2645 3.39404 56.301 3.31988 56.3011 3.21777V3.19727C56.301 2.94933 56.2312 2.7574 56.0911 2.62109C55.9528 2.48473 55.7466 2.41602 55.472 2.41602C55.1862 2.41602 54.9609 2.47972 54.7962 2.60645C54.6333 2.73145 54.5198 2.871 54.4573 3.02441L53.6595 2.84277C53.7542 2.57762 53.8927 2.36307 54.0745 2.2002C54.258 2.03566 54.469 1.91661 54.7073 1.84277C54.9458 1.76705 55.1971 1.72855 55.4602 1.72852ZM72.804 1.72852C72.9782 1.72852 73.1636 1.74935 73.3587 1.79102C73.5555 1.8308 73.7391 1.90483 73.9095 2.0127C74.0817 2.12056 74.2225 2.27507 74.3323 2.47559C74.4422 2.67445 74.4973 2.93377 74.4973 3.25195V6.14941H73.6682V5.55273H73.6341C73.5791 5.66258 73.4968 5.77089 73.387 5.87695C73.2772 5.98299 73.1355 6.07056 72.9632 6.14062C72.7909 6.21065 72.5845 6.24609 72.344 6.24609C72.0676 6.24608 71.8175 6.19502 71.594 6.09277C71.3705 5.98861 71.1935 5.83759 71.0628 5.64062C70.934 5.44368 70.8694 5.20194 70.8694 4.91602C70.8695 4.66997 70.9174 4.46761 71.012 4.30859C71.1066 4.14963 71.234 4.02345 71.3948 3.93066C71.5557 3.8379 71.7361 3.76805 71.9348 3.7207C72.1337 3.67335 72.3368 3.63693 72.5432 3.6123C72.8043 3.58203 73.0162 3.55701 73.179 3.53809C73.3417 3.51727 73.4606 3.48485 73.5345 3.43945C73.6082 3.39404 73.6447 3.31988 73.6448 3.21777V3.19727C73.6447 2.94933 73.5749 2.7574 73.4348 2.62109C73.2966 2.48473 73.0903 2.41602 72.8157 2.41602C72.5299 2.41602 72.3047 2.47973 72.1399 2.60645C71.977 2.73145 71.8636 2.871 71.8011 3.02441L71.0032 2.84277C71.0979 2.57762 71.2364 2.36307 71.4182 2.2002C71.6018 2.03566 71.8127 1.91661 72.0511 1.84277C72.2896 1.76705 72.5409 1.72855 72.804 1.72852ZM48.7386 1.72852C48.9848 1.72852 49.2243 1.76915 49.4554 1.85059C49.6863 1.93203 49.8938 2.0602 50.0774 2.23438C50.261 2.40855 50.406 2.63486 50.512 2.91309C50.618 3.18957 50.6712 3.5261 50.6712 3.92188V4.22363H47.5716C47.5782 4.48938 47.6268 4.71788 47.722 4.9082C47.8261 5.11259 47.971 5.26906 48.1565 5.37695C48.342 5.48293 48.559 5.5361 48.8069 5.53613C48.9678 5.53613 49.1148 5.51317 49.2473 5.46777C49.3799 5.42042 49.4945 5.34964 49.5911 5.25684C49.6876 5.16405 49.7617 5.0494 49.8128 4.91309L50.6165 5.05859C50.5521 5.29521 50.4364 5.50271 50.2698 5.68066C50.1051 5.85666 49.8976 5.99434 49.6477 6.09277C49.3998 6.18921 49.1169 6.23726 48.7991 6.2373C48.3692 6.2373 47.9984 6.14563 47.6878 5.96191C47.3791 5.77633 47.1405 5.51584 46.972 5.18066C46.8053 4.8436 46.722 4.44865 46.722 3.99609C46.722 3.54926 46.8054 3.15529 46.972 2.81445C47.1405 2.47364 47.375 2.2069 47.6761 2.01562C47.979 1.8244 48.3334 1.72858 48.7386 1.72852ZM65.0608 1.72852C65.4699 1.72853 65.8272 1.82228 66.1321 2.00977C66.437 2.19726 66.6735 2.46084 66.8421 2.7998C67.0106 3.13881 67.095 3.53467 67.095 3.9873C67.095 4.43796 67.0106 4.83187 66.8421 5.16895C66.6736 5.50596 66.4369 5.76857 66.1321 5.95605C65.8272 6.14354 65.4699 6.23729 65.0608 6.2373C64.6517 6.2373 64.2945 6.14355 63.9895 5.95605C63.6847 5.76856 63.4481 5.50602 63.2796 5.16895C63.1111 4.83185 63.0266 4.438 63.0266 3.9873C63.0266 3.53467 63.111 3.13881 63.2796 2.7998C63.4481 2.46083 63.6846 2.19725 63.9895 2.00977C64.2945 1.82227 64.6517 1.72852 65.0608 1.72852ZM76.2337 5.06934C76.3871 5.06934 76.5204 5.12556 76.6321 5.2373C76.7437 5.34705 76.8001 5.47967 76.802 5.63477C76.8001 5.73886 76.773 5.8348 76.72 5.92188C76.6689 6.0071 76.6002 6.07582 76.5149 6.12695C76.4298 6.17792 76.3358 6.20312 76.2337 6.20312C76.0766 6.20305 75.942 6.14786 75.8304 6.03809C75.7188 5.92641 75.6644 5.79181 75.6663 5.63477C75.6645 5.47964 75.7188 5.34706 75.8304 5.2373C75.942 5.12564 76.0766 5.06942 76.2337 5.06934ZM33.1009 0.331055C33.5137 0.331055 33.8564 0.399769 34.1272 0.536133C34.3978 0.670576 34.6003 0.853083 34.7346 1.08398C34.8691 1.31312 34.9368 1.57155 34.9368 1.85938C34.9368 2.1018 34.892 2.30697 34.803 2.47363C34.714 2.63825 34.5941 2.77078 34.4446 2.87109C34.297 2.96946 34.1342 3.04149 33.9563 3.08691V3.14355C34.1495 3.15303 34.3381 3.21553 34.5218 3.33105C34.7073 3.44469 34.8605 3.60718 34.9817 3.81738C35.1028 4.02755 35.1634 4.28299 35.1634 4.58398C35.1634 4.88123 35.0935 5.14808 34.9534 5.38477C34.8152 5.61949 34.6013 5.8061 34.3118 5.94434C34.022 6.0807 33.6512 6.14941 33.2005 6.14941H30.971V0.331055H33.1009ZM41.5413 6.14941H40.6917V1.78613H41.5413V6.14941ZM44.3167 3.48438L45.2884 1.78613H46.218L44.8567 3.96777L46.2288 6.14941H45.3001L44.3167 4.51855L43.3372 6.14941H42.4055L43.763 3.96777L42.4221 1.78613H43.3538L44.3167 3.48438ZM70.2054 1.72559C70.279 1.72937 70.3366 1.73456 70.3782 1.74023V2.55273C70.3441 2.54327 70.2836 2.53284 70.1966 2.52148C70.1094 2.50823 70.022 2.50195 69.9348 2.50195C69.7342 2.50198 69.5549 2.54468 69.3977 2.62988C69.2427 2.71317 69.1194 2.82912 69.0286 2.97852C68.9377 3.12621 68.8929 3.29504 68.8929 3.48438V6.14941H68.0432V1.78613H68.8636V2.47852H68.9095C68.989 2.2438 69.1297 2.05922 69.3304 1.9248C69.5329 1.78859 69.7623 1.7207 70.0179 1.7207C70.0708 1.72071 70.1336 1.72181 70.2054 1.72559ZM38.7102 4.0127C38.6799 4.04298 38.6215 4.07214 38.5345 4.09863C38.4493 4.12324 38.3513 4.14416 38.2415 4.16309C38.1319 4.1801 38.0251 4.19679 37.9212 4.21191C37.817 4.22517 37.7295 4.23662 37.6595 4.24609C37.4947 4.26693 37.3437 4.30134 37.2073 4.35059C37.073 4.39982 36.9655 4.47171 36.8841 4.56445C36.8046 4.65535 36.7649 4.77629 36.7649 4.92773C36.7649 5.13794 36.8421 5.29733 36.9973 5.40527C37.1526 5.51129 37.3507 5.56443 37.5911 5.56445C37.8259 5.56445 38.027 5.51761 38.1936 5.4248C38.3621 5.33202 38.4903 5.21108 38.5774 5.06152C38.6664 4.91001 38.7102 4.74754 38.7102 4.5752V4.0127ZM56.304 4.0127C56.2737 4.04298 56.2153 4.07214 56.1282 4.09863C56.043 4.12324 55.945 4.14416 55.8352 4.16309C55.7256 4.1801 55.6189 4.19679 55.5149 4.21191C55.4108 4.22517 55.3233 4.23662 55.2532 4.24609C55.0884 4.26693 54.9374 4.30134 54.8011 4.35059C54.6667 4.39982 54.5592 4.47171 54.4778 4.56445C54.3983 4.65535 54.3587 4.77629 54.3587 4.92773C54.3587 5.13794 54.4358 5.29733 54.5911 5.40527C54.7464 5.51129 54.9444 5.56443 55.1848 5.56445C55.4197 5.56445 55.6207 5.51761 55.7874 5.4248C55.9559 5.33202 56.0841 5.21108 56.1712 5.06152C56.2602 4.91001 56.304 4.74754 56.304 4.5752V4.0127ZM73.6477 4.0127C73.6174 4.04298 73.559 4.07213 73.472 4.09863C73.3868 4.12324 73.2888 4.14416 73.179 4.16309C73.0694 4.1801 72.9626 4.19679 72.8587 4.21191C72.7545 4.22517 72.667 4.23662 72.597 4.24609C72.4322 4.26693 72.2812 4.30134 72.1448 4.35059C72.0105 4.39982 71.903 4.47171 71.8216 4.56445C71.7421 4.65535 71.7024 4.77629 71.7024 4.92773C71.7024 5.13794 71.7796 5.29733 71.9348 5.40527C72.0901 5.51129 72.2882 5.56443 72.5286 5.56445C72.7634 5.56445 72.9645 5.51761 73.1311 5.4248C73.2996 5.33202 73.4278 5.21108 73.5149 5.06152C73.6039 4.91001 73.6477 4.74754 73.6477 4.5752V4.0127ZM65.0638 2.43945C64.7967 2.43945 64.5748 2.5103 64.3987 2.65234C64.2245 2.79437 64.0952 2.98299 64.01 3.21777C63.9268 3.45066 63.8851 3.70607 63.885 3.98438C63.885 4.26468 63.9267 4.52193 64.01 4.75488C64.0953 4.98757 64.2246 5.17442 64.3987 5.31445C64.5748 5.45453 64.7968 5.52441 65.0638 5.52441C65.3288 5.52438 65.5487 5.45456 65.7229 5.31445C65.897 5.17441 66.0253 4.98759 66.1087 4.75488C66.1939 4.52193 66.2366 4.26468 66.2366 3.98438C66.2366 3.70608 66.1938 3.45065 66.1087 3.21777C66.0254 2.98305 65.897 2.79436 65.7229 2.65234C65.5487 2.51033 65.3288 2.43949 65.0638 2.43945ZM31.8479 5.39648H33.1155C33.5358 5.39647 33.837 5.31515 34.0188 5.15234C34.2006 4.98946 34.2913 4.78533 34.2913 4.54102C34.2912 4.35762 34.2452 4.18933 34.1526 4.03613C34.0598 3.88272 33.9265 3.75985 33.7542 3.66895C33.5838 3.5782 33.3814 3.53322 33.1468 3.5332H31.8479V5.39648ZM60.1057 2.4502C59.8503 2.45027 59.6374 2.51691 59.4671 2.64941C59.2966 2.7801 59.1675 2.95821 59.0804 3.18359C58.9952 3.4089 58.9524 3.66116 58.9524 3.93945C58.9525 4.22527 58.9962 4.47657 59.0833 4.69238C59.1704 4.90811 59.2997 5.07612 59.47 5.19727C59.6423 5.31841 59.854 5.37981 60.1057 5.37988C60.3501 5.37988 60.5573 5.32262 60.7259 5.20898C60.8961 5.09351 61.0245 4.92863 61.1116 4.71484C61.2006 4.49903 61.2454 4.24042 61.2454 3.93945C61.2454 3.64589 61.2017 3.38657 61.1145 3.16309C61.0274 2.93979 60.8992 2.76555 60.7307 2.64062C60.5622 2.5139 60.3537 2.4502 60.1057 2.4502ZM76.6263 4.47559H75.8391L75.7649 0.331055H76.6995L76.6263 4.47559ZM48.7444 2.43066C48.5059 2.43071 48.2974 2.48906 48.1194 2.60645C47.9433 2.72197 47.8068 2.87405 47.7102 3.06152C47.6273 3.22423 47.5827 3.39947 47.5725 3.58691H49.8382C49.8382 3.36354 49.7932 3.16545 49.7024 2.99316C49.6115 2.81894 49.4834 2.68143 49.3186 2.58105C49.1558 2.48068 48.9641 2.43066 48.7444 2.43066ZM31.8479 2.84863H33.0247C33.2216 2.84861 33.3988 2.81011 33.5559 2.73438C33.7149 2.65862 33.8411 2.55232 33.9339 2.41602C34.0284 2.27784 34.0755 2.11506 34.0755 1.92773C34.0755 1.6872 33.9911 1.48514 33.8225 1.32227C33.654 1.15957 33.3954 1.07812 33.0471 1.07812H31.8479V2.84863ZM41.1204 0.0986328C41.2681 0.0986361 41.3942 0.148648 41.4983 0.249023C41.6042 0.347419 41.6574 0.466482 41.6575 0.606445C41.6575 0.744703 41.6044 0.864465 41.4983 0.964844C41.3942 1.06329 41.2681 1.1123 41.1204 1.1123C40.9727 1.1123 40.8456 1.06331 40.7395 0.964844C40.6354 0.864465 40.5833 0.744703 40.5833 0.606445C40.5833 0.466498 40.6356 0.347412 40.7395 0.249023C40.8456 0.148645 40.9727 0.0986328 41.1204 0.0986328Z" fill="#272727"/>
<path d="M42.2499 25.06H39.9701L38.7212 21.2438H34.3803L33.1906 25.06H30.971L35.2717 12.0679H37.9281L42.2499 25.06ZM38.3447 19.6427L37.2153 16.2502C37.0959 15.9036 36.872 15.0875 36.5417 13.8027H36.5015C36.37 14.3553 36.1582 15.1714 35.8671 16.2502L34.7577 19.6427H38.3447Z" fill="#272727"/>
<path d="M53.3101 20.2603C53.3101 21.8535 52.8673 23.1129 51.9819 24.0374C51.1888 24.8604 50.204 25.2714 49.0284 25.2714C47.7594 25.2714 46.8479 24.8282 46.2927 23.9417H46.2525V28.8768H44.1122V18.7754C44.1122 17.7737 44.0851 16.7457 44.0329 15.6913H45.9152L46.0347 17.1762H46.0749C46.7886 16.0574 47.8719 15.499 49.3255 15.499C50.462 15.499 51.4107 15.9354 52.1696 16.8092C52.9306 17.6839 53.3101 18.8339 53.3101 20.2603ZM51.1296 20.3364C51.1296 19.4246 50.9187 18.6729 50.4951 18.0812C50.0323 17.4642 49.4109 17.1557 48.6318 17.1557C48.1038 17.1557 47.6239 17.3276 47.1952 17.6663C46.7655 18.008 46.4845 18.4542 46.3529 19.0067C46.2867 19.2645 46.2536 19.4753 46.2536 19.6413V21.2033C46.2536 21.8848 46.4684 22.4598 46.8981 22.9294C47.3277 23.3989 47.8859 23.6332 48.5726 23.6332C49.3787 23.6332 50.0062 23.3306 50.4549 22.7273C50.9047 22.123 51.1296 21.3263 51.1296 20.3364Z" fill="#272727"/>
<path d="M64.3903 20.2603C64.3903 21.8535 63.9475 23.1129 63.0611 24.0374C62.269 24.8604 61.2842 25.2714 60.1086 25.2714C58.8396 25.2714 57.9281 24.8282 57.3739 23.9417H57.3338V28.8768H55.1934V18.7754C55.1934 17.7737 55.1663 16.7457 55.1141 15.6913H56.9964L57.1159 17.1762H57.1561C57.8688 16.0574 58.9521 15.499 60.4067 15.499C61.5422 15.499 62.4909 15.9354 63.2518 16.8092C64.0098 17.6839 64.3903 18.8339 64.3903 20.2603ZM62.2098 20.3364C62.2098 19.4246 61.9979 18.6729 61.5743 18.0812C61.1115 17.4642 60.4921 17.1557 59.712 17.1557C59.183 17.1557 58.7041 17.3276 58.2744 17.6663C57.8448 18.008 57.5647 18.4542 57.4331 19.0067C57.3679 19.2645 57.3338 19.4753 57.3338 19.6413V21.2033C57.3338 21.8848 57.5486 22.4598 57.9763 22.9294C58.4059 23.398 58.9641 23.6332 59.6528 23.6332C60.4589 23.6332 61.0864 23.3306 61.5351 22.7273C61.9849 22.123 62.2098 21.3263 62.2098 20.3364Z" fill="#272727"/>
<path d="M76.7785 21.416C76.7785 22.5212 76.384 23.4203 75.5919 24.1144C74.7215 24.873 73.5098 25.2518 71.9527 25.2518C70.5151 25.2518 69.3626 24.9823 68.4902 24.4424L68.9862 22.7076C69.9258 23.2602 70.9569 23.5374 72.0802 23.5374C72.8864 23.5374 73.5138 23.3598 73.9646 23.0064C74.4133 22.6529 74.6372 22.1785 74.6372 21.5869C74.6372 21.0597 74.4525 20.6155 74.082 20.2552C73.7136 19.895 73.0982 19.5601 72.2388 19.2507C69.8997 18.4023 68.7312 17.1595 68.7312 15.5253C68.7312 14.4572 69.1408 13.5815 69.961 12.9001C70.7782 12.2177 71.8684 11.877 73.2317 11.877C74.4475 11.877 75.4574 12.0829 76.2635 12.494L75.7284 14.1907C74.9755 13.7924 74.1242 13.5932 73.1715 13.5932C72.4185 13.5932 71.8303 13.7738 71.4086 14.1331C71.0522 14.4543 70.8735 14.8458 70.8735 15.3095C70.8735 15.823 71.0773 16.2477 71.4869 16.5816C71.8433 16.8901 72.4908 17.2239 73.4305 17.5842C74.58 18.0342 75.4243 18.5605 75.9674 19.1638C76.5085 19.7652 76.7785 20.5179 76.7785 21.416Z" fill="#272727"/>
<path d="M83.8551 17.2532H81.496V21.8016C81.496 22.9585 81.9116 23.5364 82.7448 23.5364C83.1273 23.5364 83.4445 23.5042 83.6955 23.4398L83.7548 25.0204C83.3331 25.1736 82.778 25.2507 82.0903 25.2507C81.245 25.2507 80.5844 24.9998 80.1075 24.499C79.6327 23.9972 79.3938 23.1557 79.3938 21.9734V17.2512H77.9883V15.6892H79.3938V13.9739L81.496 13.3569V15.6892H83.8551V17.2532Z" fill="#272727"/>
<path d="M94.4996 20.2983C94.4996 21.7383 94.0759 22.9206 93.2306 23.8451C92.3442 24.797 91.1676 25.2714 89.7009 25.2714C88.2874 25.2714 87.162 24.8155 86.3227 23.9037C85.4834 22.9918 85.0638 21.8408 85.0638 20.4536C85.0638 19.0019 85.4955 17.8128 86.3619 16.8882C87.2262 15.9627 88.3928 15.5 89.8595 15.5C91.273 15.5 92.4104 15.9559 93.2688 16.8687C94.09 17.7542 94.4996 18.8974 94.4996 20.2983ZM92.2789 20.3657C92.2789 19.5017 92.0892 18.7607 91.7047 18.1427C91.2559 17.3949 90.6144 17.022 89.7832 17.022C88.9228 17.022 88.2693 17.3959 87.8206 18.1427C87.4361 18.7617 87.2463 19.5144 87.2463 20.4047C87.2463 21.2687 87.4361 22.0097 87.8206 22.6267C88.2834 23.3745 88.9299 23.7475 89.7641 23.7475C90.5813 23.7475 91.2228 23.3667 91.6856 22.6072C92.0802 21.9775 92.2789 21.2287 92.2789 20.3657Z" fill="#272727"/>
<path d="M101.457 17.5218C101.245 17.4838 101.019 17.4642 100.782 17.4642C100.029 17.4642 99.4469 17.7405 99.0373 18.2941C98.681 18.7822 98.5023 19.3992 98.5023 20.1441V25.0596H96.3629L96.383 18.6416C96.383 17.5619 96.3559 16.5788 96.3027 15.6923H98.167L98.2453 17.4847H98.3045C98.5304 16.8687 98.8868 16.3728 99.3747 16.0008C99.8515 15.666 100.367 15.499 100.922 15.499C101.119 15.499 101.298 15.5127 101.457 15.5371V17.5218Z" fill="#272727"/>
<path d="M111.029 19.9322C111.029 20.3052 111.004 20.6195 110.951 20.8763H104.53C104.555 21.8018 104.865 22.5096 105.461 22.9977C106.002 23.4341 106.702 23.6528 107.562 23.6528C108.512 23.6528 109.38 23.5054 110.16 23.2095L110.495 24.6544C109.583 25.041 108.507 25.2333 107.265 25.2333C105.772 25.2333 104.599 24.8057 103.746 23.9515C102.894 23.0973 102.468 21.9502 102.468 20.5112C102.468 19.0985 102.864 17.9221 103.658 16.9839C104.49 15.9823 105.613 15.4814 107.026 15.4814C108.415 15.4814 109.466 15.9823 110.18 16.9839C110.745 17.7796 111.029 18.7636 111.029 19.9322ZM108.988 19.3924C109.002 18.7754 108.863 18.2423 108.572 17.7923C108.202 17.2133 107.633 16.9244 106.867 16.9244C106.167 16.9244 105.598 17.2065 105.163 17.7727C104.807 18.2228 104.595 18.7627 104.53 19.3914H108.988V19.3924Z" fill="#272727"/>
</svg>
