<svg width="135" height="26" viewBox="0 0 135 26" fill="none" xmlns="http://www.w3.org/2000/svg">
<path d="M9.06431 3.71988C9.11107 3.63906 9.03748 3.54092 8.95007 3.56919C5.26831 4.76014 2.50228 8.04978 2.002 12.061C1.98319 12.2118 2.09933 12.3434 2.24765 12.3434H6.19187C6.45941 12.3434 6.67917 12.1281 6.69825 11.8545C6.89942 8.96921 7.67753 6.11683 9.06431 3.71988Z" fill="#272727"/>
<path d="M2.24765 14.3997C2.09933 14.3997 1.98319 14.5313 2.002 14.6822C2.50228 18.6934 5.26831 21.983 8.95007 23.174C9.03749 23.2022 9.11107 23.1041 9.06431 23.0233C7.67753 20.6263 6.89942 17.7739 6.69825 14.8887C6.67917 14.6151 6.45941 14.3997 6.19187 14.3997H2.24765Z" fill="#272727"/>
<path d="M14.9357 23.0233C14.8889 23.1041 14.9625 23.2022 15.0499 23.174C18.7317 21.983 21.4977 18.6934 21.998 14.6822C22.0168 14.5313 21.9007 14.3997 21.7523 14.3997H17.8081C17.5406 14.3997 17.3208 14.6151 17.3018 14.8887C17.1006 17.7739 16.3225 20.6263 14.9357 23.0233Z" fill="#272727"/>
<path d="M21.7523 12.3434C21.9007 12.3434 22.0168 12.2118 21.998 12.061C21.4977 8.04978 18.7317 4.76014 15.0499 3.5692C14.9625 3.54092 14.8889 3.63906 14.9357 3.71988C16.3225 6.11684 17.1006 8.96922 17.3018 11.8545C17.3208 12.1281 17.5406 12.3434 17.8081 12.3434H21.7523Z" fill="#272727"/>
<path d="M9.21678 14.3997C8.92936 14.3997 8.70008 14.6471 8.72377 14.9407C8.97314 18.032 9.97659 20.9699 11.63 23.183C11.8178 23.4345 12.1823 23.4345 12.3702 23.183C14.0235 20.9699 15.0269 18.032 15.2762 14.9407C15.2999 14.6471 15.0706 14.3997 14.7832 14.3997H9.21678Z" fill="#272727"/>
<path d="M11.63 3.56019C11.8178 3.30871 12.1823 3.30871 12.3702 3.56019C14.0235 5.77326 15.0269 8.71113 15.2762 11.8025C15.2999 12.0961 15.0706 12.3434 14.7832 12.3434H9.21678C8.92936 12.3434 8.70008 12.0961 8.72377 11.8025C8.97314 8.71113 9.97659 5.77326 11.63 3.56019Z" fill="#272727"/>
<path d="M65.1807 2.38525C65.4362 2.38525 65.6468 2.42908 65.8115 2.51611C65.9782 2.60134 66.1115 2.70447 66.21 2.82568C66.3083 2.9448 66.3825 3.05767 66.4336 3.16357H66.4912V2.44189H67.5049V6.87744C67.5048 7.25029 67.4162 7.55902 67.2383 7.80322C67.0603 8.04751 66.8165 8.22986 66.5078 8.35107C66.1992 8.47225 65.8489 8.53365 65.457 8.53369C65.0877 8.53369 64.77 8.4827 64.5049 8.38232C64.2399 8.28388 64.0271 8.15141 63.8662 7.98486C63.7052 7.81822 63.5928 7.63377 63.5303 7.43115L64.457 7.20654C64.4987 7.29172 64.5592 7.37618 64.6387 7.45947C64.7182 7.54464 64.8256 7.61454 64.96 7.66943C65.0963 7.72616 65.2674 7.75439 65.4736 7.75439C65.7653 7.75439 66.007 7.68355 66.1982 7.5415C66.3894 7.40134 66.4854 7.17001 66.4854 6.84814V6.02197H66.4336C66.3806 6.12786 66.3032 6.23659 66.2012 6.34814C66.1009 6.45978 65.9672 6.55367 65.8008 6.62939C65.6361 6.70511 65.4285 6.74361 65.1787 6.74365C64.8435 6.74365 64.5393 6.6645 64.2666 6.50732C63.9958 6.34823 63.7791 6.11176 63.6182 5.79736C63.4592 5.48112 63.3799 5.08512 63.3799 4.60986C63.3799 4.13085 63.4592 3.72645 63.6182 3.39697C63.7791 3.06553 63.9968 2.8145 64.2695 2.64404C64.5421 2.47188 64.8457 2.38533 65.1807 2.38525ZM54.1738 2.38525C54.384 2.38525 54.5934 2.41024 54.8018 2.45947C55.0101 2.50872 55.2007 2.58998 55.373 2.70361C55.5453 2.81532 55.6839 2.96757 55.7881 3.16064C55.8941 3.35377 55.9463 3.5956 55.9463 3.88525V6.80615H54.958V6.20654H54.9238C54.8614 6.32764 54.7737 6.44139 54.6602 6.54736C54.5484 6.65153 54.4068 6.7359 54.2363 6.80029C54.0678 6.86275 53.8698 6.89404 53.6426 6.89404C53.3661 6.89402 53.117 6.84504 52.8955 6.74658C52.6759 6.64623 52.5018 6.49823 52.373 6.30322C52.2462 6.10815 52.1826 5.86753 52.1826 5.58154C52.1826 5.33541 52.2285 5.13215 52.3193 4.97119C52.4102 4.81021 52.5342 4.68106 52.6914 4.58447C52.8485 4.48795 53.0258 4.41494 53.2227 4.36572C53.4214 4.31463 53.6269 4.27711 53.8389 4.25439C54.0945 4.22789 54.3019 4.20491 54.4609 4.18408C54.62 4.16135 54.7356 4.127 54.8076 4.08154C54.8814 4.03419 54.918 3.96125 54.918 3.86279V3.84619C54.918 3.63218 54.8544 3.46557 54.7275 3.34814C54.6007 3.231 54.418 3.17236 54.1797 3.17236C53.9278 3.17236 53.7278 3.22755 53.5801 3.3374C53.4345 3.44711 53.3363 3.5767 53.2852 3.72607L52.3242 3.59033C52.4 3.32527 52.5251 3.10329 52.6992 2.92529C52.8735 2.74537 53.087 2.61099 53.3389 2.52197C53.5907 2.43109 53.869 2.38527 54.1738 2.38525ZM60.752 2.38525C60.9622 2.38525 61.1716 2.41024 61.3799 2.45947C61.5882 2.50872 61.7788 2.58998 61.9512 2.70361C62.1234 2.81532 62.2621 2.96757 62.3662 3.16064C62.4722 3.35377 62.5244 3.5956 62.5244 3.88525V6.80615H61.5361V6.20654H61.502C61.4395 6.32764 61.3518 6.44139 61.2383 6.54736C61.1265 6.65153 60.9849 6.7359 60.8145 6.80029C60.6459 6.86275 60.4479 6.89404 60.2207 6.89404C59.9443 6.89402 59.6952 6.84504 59.4736 6.74658C59.254 6.64623 59.08 6.49823 58.9512 6.30322C58.8243 6.10815 58.7607 5.86753 58.7607 5.58154C58.7607 5.33541 58.8066 5.13215 58.8975 4.97119C58.9884 4.81021 59.1123 4.68106 59.2695 4.58447C59.4267 4.48795 59.6039 4.41494 59.8008 4.36572C59.9995 4.31463 60.205 4.27711 60.417 4.25439C60.6726 4.22789 60.88 4.20491 61.0391 4.18408C61.1982 4.16135 61.3138 4.127 61.3857 4.08154C61.4596 4.03419 61.4961 3.96125 61.4961 3.86279V3.84619C61.4961 3.63218 61.4326 3.46557 61.3057 3.34814C61.1788 3.231 60.9962 3.17236 60.7578 3.17236C60.5059 3.17236 60.3059 3.22755 60.1582 3.3374C60.0126 3.44711 59.9144 3.5767 59.8633 3.72607L58.9023 3.59033C58.9781 3.32527 59.1032 3.10329 59.2773 2.92529C59.4516 2.74537 59.6651 2.61099 59.917 2.52197C60.1688 2.43109 60.4471 2.38527 60.752 2.38525ZM78.3066 2.38525C78.5168 2.38525 78.7263 2.41024 78.9346 2.45947C79.1429 2.50872 79.3335 2.58998 79.5059 2.70361C79.6781 2.81532 79.8168 2.96757 79.9209 3.16064C80.0269 3.35377 80.0791 3.5956 80.0791 3.88525V6.80615H79.0908V6.20654H79.0566C78.9942 6.32764 78.9065 6.44139 78.793 6.54736C78.6812 6.65153 78.5396 6.7359 78.3691 6.80029C78.2006 6.86275 78.0026 6.89404 77.7754 6.89404C77.499 6.89402 77.2499 6.84504 77.0283 6.74658C76.8087 6.64623 76.6346 6.49823 76.5059 6.30322C76.379 6.10815 76.3154 5.86753 76.3154 5.58154C76.3154 5.33541 76.3613 5.13215 76.4521 4.97119C76.5431 4.81021 76.667 4.68106 76.8242 4.58447C76.9814 4.48795 77.1586 4.41494 77.3555 4.36572C77.5542 4.31463 77.7597 4.27711 77.9717 4.25439C78.2273 4.22789 78.4347 4.20491 78.5938 4.18408C78.7528 4.16135 78.8685 4.127 78.9404 4.08154C79.0143 4.03419 79.0508 3.96125 79.0508 3.86279V3.84619C79.0508 3.63218 78.9872 3.46557 78.8604 3.34814C78.7335 3.231 78.5508 3.17236 78.3125 3.17236C78.0606 3.17236 77.8606 3.22755 77.7129 3.3374C77.5673 3.44711 77.4691 3.5767 77.418 3.72607L76.457 3.59033C76.5328 3.32527 76.6579 3.10329 76.832 2.92529C77.0063 2.74537 77.2198 2.61099 77.4717 2.52197C77.7235 2.43109 78.0018 2.38527 78.3066 2.38525ZM39.8867 2.38525C40.2407 2.3853 40.5545 2.4509 40.8271 2.58154C41.1016 2.7103 41.3206 2.8928 41.4834 3.12939C41.6463 3.36423 41.739 3.63925 41.7617 3.95361H40.7783C40.7385 3.74343 40.6437 3.56835 40.4941 3.42822C40.3464 3.28621 40.1485 3.21533 39.9004 3.21533C39.6903 3.21536 39.5057 3.27174 39.3467 3.38525C39.1876 3.497 39.0636 3.65843 38.9746 3.86865C38.8875 4.07886 38.8438 4.33099 38.8438 4.62451C38.8438 4.9217 38.8875 5.17719 38.9746 5.39111C39.0617 5.60313 39.1837 5.7668 39.3408 5.88232C39.4999 5.99593 39.6865 6.05319 39.9004 6.05322C40.0518 6.05322 40.1874 6.02499 40.3066 5.96826C40.4277 5.90962 40.529 5.82499 40.6104 5.71533C40.6917 5.60559 40.748 5.47195 40.7783 5.31494H41.7617C41.7371 5.62347 41.6454 5.89673 41.4883 6.13525C41.3311 6.37192 41.1174 6.55743 40.8467 6.69189C40.5758 6.82447 40.2571 6.89111 39.8916 6.89111C39.4562 6.89105 39.0819 6.79523 38.7695 6.604C38.4592 6.41276 38.2193 6.14893 38.0508 5.81201C37.8841 5.473 37.8008 5.0824 37.8008 4.64111C37.8008 4.19812 37.8863 3.80717 38.0566 3.46826C38.2271 3.12736 38.4677 2.86176 38.7783 2.67236C39.0908 2.48108 39.4606 2.38525 39.8867 2.38525ZM44.4834 2.38525C44.7523 2.38525 45.0065 2.42899 45.2451 2.51611C45.4856 2.60134 45.6981 2.73366 45.8818 2.91357C46.0674 3.09346 46.2133 3.32276 46.3193 3.60107C46.4254 3.87759 46.4775 4.20776 46.4775 4.59033V4.90576H43.4395C43.4425 5.14848 43.4875 5.3581 43.5771 5.53369C43.6699 5.7135 43.8002 5.85121 43.9668 5.94775C44.1334 6.04243 44.3283 6.09032 44.5518 6.09033C44.7013 6.09033 44.8368 6.06946 44.958 6.02783C45.0792 5.98429 45.1844 5.92069 45.2734 5.8374C45.3624 5.75409 45.4301 5.6509 45.4756 5.52783L46.4355 5.63525C46.3749 5.88902 46.2593 6.11091 46.0889 6.30029C45.9204 6.48772 45.7045 6.63363 45.4414 6.73779C45.1783 6.84002 44.8769 6.89107 44.5381 6.89111C44.1007 6.89111 43.7224 6.80039 43.4043 6.61865C43.0881 6.43497 42.8443 6.17549 42.6738 5.84033C42.5034 5.50325 42.418 5.10627 42.418 4.6499C42.418 4.2012 42.5035 3.8072 42.6738 3.46826C42.8462 3.12736 43.0868 2.86176 43.3955 2.67236C43.7042 2.48112 44.0668 2.38529 44.4834 2.38525ZM70.4619 2.38525C70.888 2.38525 71.2578 2.47905 71.5703 2.6665C71.8828 2.854 72.1245 3.11753 72.2949 3.45654C72.4672 3.79552 72.5537 4.19042 72.5537 4.64111C72.5537 5.09174 72.4672 5.4857 72.2949 5.82275C72.1245 6.15986 71.8828 6.42236 71.5703 6.60986C71.2578 6.79736 70.8881 6.89111 70.4619 6.89111C70.036 6.89105 69.6669 6.79729 69.3545 6.60986C69.042 6.42236 68.7993 6.15987 68.627 5.82275C68.4566 5.4857 68.3711 5.09174 68.3711 4.64111C68.3711 4.19042 68.4565 3.79552 68.627 3.45654C68.7993 3.11753 69.042 2.854 69.3545 2.6665C69.6668 2.47914 70.036 2.38532 70.4619 2.38525ZM51.291 6.80615H50.2803V6.11865H50.2178C50.1647 6.2247 50.0877 6.33724 49.9873 6.45654C49.887 6.57387 49.7544 6.67403 49.5898 6.75732C49.4252 6.84061 49.2176 6.88227 48.9678 6.88232C48.625 6.88232 48.3177 6.79475 48.0469 6.61865C47.776 6.44252 47.5625 6.1863 47.4053 5.85107C47.2481 5.51587 47.1689 5.1085 47.1689 4.62939C47.169 4.14493 47.2483 3.73599 47.4072 3.40283C47.5682 3.0676 47.7859 2.8145 48.0586 2.64404C48.3311 2.47188 48.6348 2.38533 48.9697 2.38525C49.2253 2.38525 49.4359 2.42908 49.6006 2.51611C49.7654 2.60134 49.8966 2.70447 49.9932 2.82568C50.0897 2.94495 50.1647 3.05755 50.2178 3.16357H50.2598V0.987793H51.291V6.80615ZM81.8213 5.62451C81.9897 5.62458 82.1357 5.685 82.2588 5.80615C82.3836 5.92732 82.4463 6.0733 82.4463 6.24365C82.4463 6.35911 82.4171 6.46444 82.3584 6.55908C82.3016 6.65367 82.2254 6.72885 82.1309 6.78564C82.0381 6.84053 81.9348 6.86861 81.8213 6.86865C81.649 6.86865 81.501 6.80808 81.3779 6.68701C81.2568 6.56584 81.1963 6.41782 81.1963 6.24365C81.1963 6.07322 81.2567 5.92736 81.3779 5.80615C81.501 5.68494 81.6489 5.62451 81.8213 5.62451ZM37.4004 6.80615H36.2754L35.7939 5.37158H33.6064L33.125 6.80615H32L34.0479 0.987793H35.3496L37.4004 6.80615ZM75.7354 2.38818C75.8073 2.39197 75.8677 2.39922 75.915 2.40869V3.354C75.8715 3.33885 75.8017 3.32631 75.707 3.31494C75.6143 3.30171 75.5245 3.29443 75.4375 3.29443C75.25 3.29443 75.0813 3.33506 74.9316 3.4165C74.7839 3.49605 74.6673 3.60748 74.582 3.74951C74.497 3.89146 74.4541 4.0553 74.4541 4.24072V6.80615H73.4258V2.44189H74.4229V3.16943H74.4688C74.5483 2.91763 74.6848 2.72374 74.8779 2.5874C75.073 2.44914 75.2959 2.37939 75.5459 2.37939C75.6025 2.37941 75.6656 2.38254 75.7354 2.38818ZM54.9209 4.72607C54.8888 4.75254 54.8343 4.7776 54.7568 4.80029C54.6812 4.823 54.5956 4.84283 54.501 4.85986C54.4064 4.8769 54.3125 4.89251 54.2197 4.90576C54.1269 4.91902 54.0457 4.93047 53.9775 4.93994C53.8245 4.96076 53.6874 4.99429 53.5664 5.0415C53.4452 5.08885 53.3494 5.15551 53.2793 5.24072C53.2092 5.32406 53.1738 5.43237 53.1738 5.56494C53.1739 5.75412 53.2437 5.89714 53.3818 5.99365C53.52 6.09007 53.6963 6.13818 53.9102 6.13818C54.1163 6.13814 54.2949 6.0974 54.4463 6.01611C54.5977 5.93286 54.7145 5.8232 54.7959 5.68701C54.8792 5.55067 54.9209 5.40167 54.9209 5.24072V4.72607ZM61.499 4.72607C61.4669 4.75254 61.4124 4.7776 61.335 4.80029C61.2593 4.823 61.1737 4.84283 61.0791 4.85986C60.9845 4.8769 60.8906 4.89251 60.7979 4.90576C60.705 4.91902 60.6238 4.93047 60.5557 4.93994C60.4026 4.96076 60.2655 4.99429 60.1445 5.0415C60.0233 5.08885 59.9275 5.15551 59.8574 5.24072C59.7873 5.32406 59.752 5.43237 59.752 5.56494C59.7521 5.75412 59.8218 5.89714 59.96 5.99365C60.0982 6.09007 60.2745 6.13818 60.4883 6.13818C60.6944 6.13814 60.8731 6.0974 61.0244 6.01611C61.1758 5.93286 61.2926 5.8232 61.374 5.68701C61.4573 5.55067 61.499 5.40167 61.499 5.24072V4.72607ZM79.0537 4.72607C79.0216 4.75254 78.9671 4.7776 78.8896 4.80029C78.814 4.823 78.7284 4.84283 78.6338 4.85986C78.5392 4.8769 78.4453 4.89251 78.3525 4.90576C78.2597 4.91902 78.1785 4.93047 78.1104 4.93994C77.9573 4.96076 77.8202 4.99429 77.6992 5.0415C77.578 5.08885 77.4822 5.15551 77.4121 5.24072C77.342 5.32406 77.3066 5.43237 77.3066 5.56494C77.3067 5.75412 77.3765 5.89714 77.5146 5.99365C77.6528 6.09007 77.8292 6.13818 78.043 6.13818C78.2491 6.13814 78.4277 6.0974 78.5791 6.01611C78.7305 5.93286 78.8473 5.8232 78.9287 5.68701C79.012 5.55067 79.0537 5.40167 79.0537 5.24072V4.72607ZM70.4678 3.20068C70.2312 3.20073 70.0341 3.2653 69.877 3.39404C69.7218 3.52278 69.605 3.69592 69.5273 3.91357C69.4516 4.12944 69.4141 4.37121 69.4141 4.63818C69.4141 4.90326 69.4516 5.144 69.5273 5.35986C69.605 5.57577 69.7216 5.74865 69.877 5.87744C70.0341 6.00423 70.2312 6.06685 70.4678 6.06689C70.6988 6.06689 70.8926 6.0043 71.0479 5.87744C71.2032 5.74865 71.3188 5.57577 71.3945 5.35986C71.4721 5.144 71.5107 4.90326 71.5107 4.63818C71.5107 4.37121 71.4722 4.12944 71.3945 3.91357C71.3188 3.69594 71.203 3.52278 71.0479 3.39404C70.8925 3.26526 70.6988 3.20068 70.4678 3.20068ZM49.2539 3.229C49.0249 3.22907 48.834 3.28943 48.6807 3.40869C48.5273 3.52801 48.4116 3.69263 48.334 3.90283C48.2564 4.11302 48.2178 4.35375 48.2178 4.62451C48.2178 4.89702 48.2564 5.14012 48.334 5.354C48.4135 5.56612 48.5302 5.73383 48.6836 5.85693C48.8388 5.97801 49.0287 6.03851 49.2539 6.03857C49.4717 6.03857 49.6581 5.98022 49.8115 5.86279C49.9647 5.74353 50.0807 5.57762 50.1602 5.36572C50.2397 5.15369 50.2802 4.90656 50.2803 4.62451C50.2803 4.34231 50.2397 4.09652 50.1602 3.88818C50.0825 3.67998 49.9668 3.51831 49.8135 3.40283C49.662 3.28738 49.4754 3.229 49.2539 3.229ZM65.4648 3.229C65.2358 3.22907 65.0449 3.28943 64.8916 3.40869C64.7382 3.52801 64.6226 3.69159 64.5449 3.8999C64.4673 4.10625 64.4287 4.3409 64.4287 4.604C64.4287 4.87105 64.4673 5.10539 64.5449 5.30615C64.6245 5.50491 64.7412 5.66027 64.8945 5.77197C65.0497 5.88163 65.2398 5.93695 65.4648 5.93701C65.6826 5.93701 65.8691 5.88389 66.0225 5.77783C66.1758 5.67178 66.2916 5.51861 66.3711 5.31982C66.4506 5.121 66.4912 4.88233 66.4912 4.604C66.4912 4.32949 66.4506 4.0887 66.3711 3.88232C66.2934 3.67609 66.1777 3.51639 66.0244 3.40283C65.8729 3.28738 65.6864 3.229 65.4648 3.229ZM82.2783 5.09619H81.3633L81.2725 0.987793H82.3721L82.2783 5.09619ZM33.8896 4.5249H35.5088L34.7217 2.18115H34.6758L33.8896 4.5249ZM44.498 3.18701C44.2879 3.18701 44.1034 3.23814 43.9443 3.34033C43.7852 3.44071 43.6603 3.57302 43.5713 3.73779C43.4936 3.88309 43.4523 4.04149 43.4424 4.2124H45.4922C45.4903 4.01553 45.4475 3.84036 45.3643 3.68701C45.2809 3.53171 45.1643 3.40884 45.0146 3.31982C44.867 3.23098 44.6948 3.18704 44.498 3.18701Z" fill="#272727"/>
<path d="M37.0467 18.8761C37.5221 18.4007 38.293 18.4007 38.7684 18.8761C39.2439 19.3516 39.2439 20.1224 38.7684 20.5979L38.2054 21.1609C38.059 21.3073 38.059 21.5448 38.2054 21.6912C38.3518 21.8377 38.5893 21.8377 38.7357 21.6912L39.2987 21.1282C40.0671 20.3598 40.0671 19.1141 39.2987 18.3458C38.5304 17.5774 37.2847 17.5774 36.5163 18.3458L35.9533 18.9088C35.8069 19.0553 35.8069 19.2927 35.9533 19.4391C36.0998 19.5856 36.3372 19.5856 36.4837 19.4391L37.0467 18.8761Z" fill="#00A1FF"/>
<path d="M37.6097 20.5652C37.7561 20.4187 37.7561 20.1813 37.6097 20.0348C37.4632 19.8884 37.2258 19.8884 37.0794 20.0348L35.3903 21.7239C35.2439 21.8703 35.2439 22.1078 35.3903 22.2542C35.5368 22.4007 35.7742 22.4007 35.9206 22.2542L37.6097 20.5652Z" fill="#00A1FF"/>
<path d="M34.7946 21.1282C34.941 20.9817 34.941 20.7443 34.7946 20.5979C34.6482 20.4514 34.4107 20.4514 34.2643 20.5979L33.7013 21.1609C32.9329 21.9292 32.9329 23.1749 33.7013 23.9433C34.4696 24.7116 35.7153 24.7116 36.4837 23.9433L37.0467 23.3803C37.1931 23.2338 37.1931 22.9964 37.0467 22.8499C36.9002 22.7035 36.6628 22.7035 36.5163 22.8499L35.9533 23.4129C35.4779 23.8884 34.707 23.8884 34.2316 23.4129C33.7561 22.9375 33.7561 22.1667 34.2316 21.6912L34.7946 21.1282Z" fill="#00A1FF"/>
<path d="M46.1903 23.2965C45.7756 23.2965 45.402 23.2226 45.0696 23.0749C44.7401 22.9243 44.4787 22.7027 44.2855 22.4101C44.0952 22.1175 44 21.7567 44 21.3277C44 20.9584 44.0682 20.653 44.2045 20.4115C44.3409 20.1701 44.527 19.9769 44.7628 19.832C44.9986 19.6871 45.2642 19.5777 45.5597 19.5039C45.858 19.4272 46.1662 19.3718 46.4844 19.3377C46.8679 19.2979 47.179 19.2624 47.4176 19.2311C47.6563 19.197 47.8295 19.1459 47.9375 19.0777C48.0483 19.0067 48.1037 18.8973 48.1037 18.7496V18.724C48.1037 18.403 48.0085 18.1544 47.8182 17.9783C47.6278 17.8022 47.3537 17.7141 46.9957 17.7141C46.6179 17.7141 46.3182 17.7965 46.0966 17.9612C45.8778 18.126 45.7301 18.3206 45.6534 18.5451L44.2131 18.3405C44.3267 17.9428 44.5142 17.6104 44.7756 17.3434C45.0369 17.0735 45.3565 16.8718 45.7344 16.7382C46.1122 16.6019 46.5298 16.5337 46.9872 16.5337C47.3026 16.5337 47.6165 16.5706 47.929 16.6445C48.2415 16.7184 48.527 16.8405 48.7855 17.011C49.044 17.1786 49.2514 17.4073 49.4077 17.697C49.5668 17.9868 49.6463 18.349 49.6463 18.7837V23.1644H48.1634V22.2652H48.1122C48.0185 22.447 47.8864 22.6175 47.7159 22.7766C47.5483 22.9328 47.3366 23.0593 47.081 23.1559C46.8281 23.2496 46.5312 23.2965 46.1903 23.2965ZM46.5909 22.163C46.9006 22.163 47.169 22.1019 47.3963 21.9797C47.6236 21.8547 47.7983 21.6899 47.9205 21.4854C48.0455 21.2809 48.108 21.0578 48.108 20.8164V20.0451C48.0597 20.0848 47.9773 20.1218 47.8608 20.1559C47.7472 20.1899 47.6193 20.2198 47.4773 20.2453C47.3352 20.2709 47.1946 20.2936 47.0554 20.3135C46.9162 20.3334 46.7955 20.3505 46.6932 20.3647C46.4631 20.3959 46.2571 20.447 46.0753 20.5181C45.8935 20.5891 45.75 20.6885 45.6449 20.8164C45.5398 20.9414 45.4872 21.1033 45.4872 21.3022C45.4872 21.5862 45.5909 21.8007 45.7983 21.9456C46.0057 22.0905 46.2699 22.163 46.5909 22.163Z" fill="#272727"/>
<path d="M51.1974 25.6189V16.6189H52.7145V17.7013H52.804C52.8835 17.5422 52.9957 17.3732 53.1406 17.1942C53.2855 17.0124 53.4815 16.8576 53.7287 16.7297C53.9759 16.599 54.2912 16.5337 54.6747 16.5337C55.1804 16.5337 55.6364 16.663 56.0426 16.9215C56.4517 17.1772 56.7756 17.5564 57.0142 18.0593C57.2557 18.5593 57.3764 19.1729 57.3764 19.9002C57.3764 20.6189 57.2585 21.2297 57.0227 21.7326C56.7869 22.2354 56.4659 22.6189 56.0597 22.8831C55.6534 23.1473 55.1932 23.2794 54.679 23.2794C54.304 23.2794 53.9929 23.2169 53.7457 23.0919C53.4986 22.9669 53.2997 22.8164 53.1491 22.6402C53.0014 22.4612 52.8864 22.2922 52.804 22.1331H52.7401V25.6189H51.1974ZM52.7102 19.8916C52.7102 20.3149 52.7699 20.6857 52.8892 21.0039C53.0114 21.322 53.1861 21.5706 53.4134 21.7496C53.6435 21.9257 53.9219 22.0138 54.2486 22.0138C54.5895 22.0138 54.875 21.9229 55.1051 21.7411C55.3352 21.5564 55.5085 21.305 55.625 20.9868C55.7443 20.6658 55.804 20.3007 55.804 19.8916C55.804 19.4854 55.7457 19.1246 55.6293 18.8093C55.5128 18.4939 55.3395 18.2468 55.1094 18.0678C54.8793 17.8888 54.5923 17.7993 54.2486 17.7993C53.919 17.7993 53.6392 17.886 53.4091 18.0593C53.179 18.2326 53.0043 18.4755 52.8849 18.788C52.7685 19.1005 52.7102 19.4684 52.7102 19.8916Z" fill="#272727"/>
<path d="M58.6974 25.6189V16.6189H60.2145V17.7013H60.304C60.3835 17.5422 60.4957 17.3732 60.6406 17.1942C60.7855 17.0124 60.9815 16.8576 61.2287 16.7297C61.4759 16.599 61.7912 16.5337 62.1747 16.5337C62.6804 16.5337 63.1364 16.663 63.5426 16.9215C63.9517 17.1772 64.2756 17.5564 64.5142 18.0593C64.7557 18.5593 64.8764 19.1729 64.8764 19.9002C64.8764 20.6189 64.7585 21.2297 64.5227 21.7326C64.2869 22.2354 63.9659 22.6189 63.5597 22.8831C63.1534 23.1473 62.6932 23.2794 62.179 23.2794C61.804 23.2794 61.4929 23.2169 61.2457 23.0919C60.9986 22.9669 60.7997 22.8164 60.6491 22.6402C60.5014 22.4612 60.3864 22.2922 60.304 22.1331H60.2401V25.6189H58.6974ZM60.2102 19.8916C60.2102 20.3149 60.2699 20.6857 60.3892 21.0039C60.5114 21.322 60.6861 21.5706 60.9134 21.7496C61.1435 21.9257 61.4219 22.0138 61.7486 22.0138C62.0895 22.0138 62.375 21.9229 62.6051 21.7411C62.8352 21.5564 63.0085 21.305 63.125 20.9868C63.2443 20.6658 63.304 20.3007 63.304 19.8916C63.304 19.4854 63.2457 19.1246 63.1293 18.8093C63.0128 18.4939 62.8395 18.2468 62.6094 18.0678C62.3793 17.8888 62.0923 17.7993 61.7486 17.7993C61.419 17.7993 61.1392 17.886 60.9091 18.0593C60.679 18.2326 60.5043 18.4755 60.3849 18.788C60.2685 19.1005 60.2102 19.4684 60.2102 19.8916Z" fill="#272727"/>
<path d="M67.1477 23.2581C66.8892 23.2581 66.6676 23.1672 66.483 22.9854C66.2983 22.8036 66.2074 22.582 66.2102 22.3206C66.2074 22.0649 66.2983 21.8462 66.483 21.6644C66.6676 21.4826 66.8892 21.3916 67.1477 21.3916C67.3977 21.3916 67.6151 21.4826 67.7997 21.6644C67.9872 21.8462 68.0824 22.0649 68.0852 22.3206C68.0824 22.4939 68.0369 22.6516 67.9489 22.7936C67.8636 22.9357 67.75 23.0493 67.608 23.1345C67.4688 23.2169 67.3153 23.2581 67.1477 23.2581Z" fill="#272727"/>
<path d="M69.6779 25.6189V16.6189H71.195V17.7013H71.2844C71.364 17.5422 71.4762 17.3732 71.6211 17.1942C71.766 17.0124 71.962 16.8576 72.2092 16.7297C72.4563 16.599 72.7717 16.5337 73.1552 16.5337C73.6609 16.5337 74.1168 16.663 74.5231 16.9215C74.9322 17.1772 75.256 17.5564 75.4947 18.0593C75.7362 18.5593 75.8569 19.1729 75.8569 19.9002C75.8569 20.6189 75.739 21.2297 75.5032 21.7326C75.2674 22.2354 74.9464 22.6189 74.5401 22.8831C74.1339 23.1473 73.6737 23.2794 73.1594 23.2794C72.7844 23.2794 72.4734 23.2169 72.2262 23.0919C71.979 22.9669 71.7802 22.8164 71.6296 22.6402C71.4819 22.4612 71.3668 22.2922 71.2844 22.1331H71.2205V25.6189H69.6779ZM71.1907 19.8916C71.1907 20.3149 71.2504 20.6857 71.3697 21.0039C71.4918 21.322 71.6665 21.5706 71.8938 21.7496C72.1239 21.9257 72.4023 22.0138 72.729 22.0138C73.07 22.0138 73.3555 21.9229 73.5856 21.7411C73.8157 21.5564 73.989 21.305 74.1055 20.9868C74.2248 20.6658 74.2844 20.3007 74.2844 19.8916C74.2844 19.4854 74.2262 19.1246 74.1097 18.8093C73.9933 18.4939 73.82 18.2468 73.5898 18.0678C73.3597 17.8888 73.0728 17.7993 72.729 17.7993C72.3995 17.7993 72.1197 17.886 71.8896 18.0593C71.6594 18.2326 71.4847 18.4755 71.3654 18.788C71.2489 19.1005 71.1907 19.4684 71.1907 19.8916Z" fill="#272727"/>
<path d="M79.0614 23.2965C78.6467 23.2965 78.2731 23.2226 77.9407 23.0749C77.6112 22.9243 77.3498 22.7027 77.1566 22.4101C76.9663 22.1175 76.8711 21.7567 76.8711 21.3277C76.8711 20.9584 76.9393 20.653 77.0756 20.4115C77.212 20.1701 77.3981 19.9769 77.6339 19.832C77.8697 19.6871 78.1353 19.5777 78.4308 19.5039C78.729 19.4272 79.0373 19.3718 79.3555 19.3377C79.739 19.2979 80.0501 19.2624 80.2887 19.2311C80.5273 19.197 80.7006 19.1459 80.8086 19.0777C80.9194 19.0067 80.9748 18.8973 80.9748 18.7496V18.724C80.9748 18.403 80.8796 18.1544 80.6893 17.9783C80.4989 17.8022 80.2248 17.7141 79.8668 17.7141C79.489 17.7141 79.1893 17.7965 78.9677 17.9612C78.7489 18.126 78.6012 18.3206 78.5245 18.5451L77.0842 18.3405C77.1978 17.9428 77.3853 17.6104 77.6467 17.3434C77.908 17.0735 78.2276 16.8718 78.6055 16.7382C78.9833 16.6019 79.4009 16.5337 79.8583 16.5337C80.1737 16.5337 80.4876 16.5706 80.8001 16.6445C81.1126 16.7184 81.3981 16.8405 81.6566 17.011C81.9151 17.1786 82.1225 17.4073 82.2788 17.697C82.4379 17.9868 82.5174 18.349 82.5174 18.7837V23.1644H81.0344V22.2652H80.9833C80.8896 22.447 80.7575 22.6175 80.587 22.7766C80.4194 22.9328 80.2077 23.0593 79.9521 23.1559C79.6992 23.2496 79.4023 23.2965 79.0614 23.2965ZM79.462 22.163C79.7717 22.163 80.0401 22.1019 80.2674 21.9797C80.4947 21.8547 80.6694 21.6899 80.7915 21.4854C80.9165 21.2809 80.979 21.0578 80.979 20.8164V20.0451C80.9308 20.0848 80.8484 20.1218 80.7319 20.1559C80.6183 20.1899 80.4904 20.2198 80.3484 20.2453C80.2063 20.2709 80.0657 20.2936 79.9265 20.3135C79.7873 20.3334 79.6665 20.3505 79.5643 20.3647C79.3342 20.3959 79.1282 20.447 78.9464 20.5181C78.7646 20.5891 78.6211 20.6885 78.516 20.8164C78.4109 20.9414 78.3583 21.1033 78.3583 21.3022C78.3583 21.5862 78.462 21.8007 78.6694 21.9456C78.8768 22.0905 79.141 22.163 79.462 22.163Z" fill="#272727"/>
<path d="M86.9151 25.7553C86.3611 25.7553 85.8853 25.68 85.4876 25.5294C85.0898 25.3817 84.7702 25.1828 84.5288 24.9328C84.2873 24.6828 84.1197 24.4059 84.0259 24.1019L85.4151 23.7652C85.4776 23.8931 85.5685 24.0195 85.6879 24.1445C85.8072 24.2723 85.9677 24.3774 86.1694 24.4598C86.3739 24.5451 86.631 24.5877 86.9407 24.5877C87.3782 24.5877 87.7404 24.4811 88.0273 24.2681C88.3143 24.0578 88.4577 23.7112 88.4577 23.2283V21.9882H88.381C88.3015 22.1473 88.185 22.3107 88.0316 22.4783C87.881 22.6459 87.6808 22.7865 87.4308 22.9002C87.1836 23.0138 86.8725 23.0706 86.4975 23.0706C85.9947 23.0706 85.5387 22.9527 85.1296 22.7169C84.7234 22.4783 84.3995 22.1232 84.158 21.6516C83.9194 21.1772 83.8001 20.5834 83.8001 19.8703C83.8001 19.1516 83.9194 18.5451 84.158 18.0507C84.3995 17.5536 84.7248 17.1772 85.1339 16.9215C85.543 16.663 85.9989 16.5337 86.5018 16.5337C86.8853 16.5337 87.2006 16.599 87.4478 16.7297C87.6978 16.8576 87.8967 17.0124 88.0444 17.1942C88.1921 17.3732 88.3043 17.5422 88.381 17.7013H88.4663V16.6189H89.9876V23.2709C89.9876 23.8306 89.854 24.2936 89.587 24.6601C89.32 25.0266 88.9549 25.3007 88.4918 25.4826C88.0288 25.6644 87.5032 25.7553 86.9151 25.7553ZM86.9279 21.8604C87.2546 21.8604 87.533 21.7809 87.7631 21.6218C87.9933 21.4627 88.168 21.234 88.2873 20.9357C88.4066 20.6374 88.4663 20.2794 88.4663 19.8618C88.4663 19.4499 88.4066 19.0891 88.2873 18.7794C88.1708 18.4698 87.9975 18.2297 87.7674 18.0593C87.5401 17.886 87.2603 17.7993 86.9279 17.7993C86.5842 17.7993 86.2972 17.8888 86.0671 18.0678C85.837 18.2468 85.6637 18.4925 85.5472 18.805C85.4308 19.1147 85.3725 19.4669 85.3725 19.8618C85.3725 20.2624 85.4308 20.6132 85.5472 20.9144C85.6665 21.2127 85.8413 21.4456 86.0714 21.6132C86.3043 21.778 86.5898 21.8604 86.9279 21.8604Z" fill="#272727"/>
<path d="M93.4521 23.2965C93.0373 23.2965 92.6637 23.2226 92.3313 23.0749C92.0018 22.9243 91.7404 22.7027 91.5472 22.4101C91.3569 22.1175 91.2617 21.7567 91.2617 21.3277C91.2617 20.9584 91.3299 20.653 91.4663 20.4115C91.6026 20.1701 91.7887 19.9769 92.0245 19.832C92.2603 19.6871 92.5259 19.5777 92.8214 19.5039C93.1197 19.4272 93.4279 19.3718 93.7461 19.3377C94.1296 19.2979 94.4407 19.2624 94.6793 19.2311C94.918 19.197 95.0913 19.1459 95.1992 19.0777C95.31 19.0067 95.3654 18.8973 95.3654 18.7496V18.724C95.3654 18.403 95.2702 18.1544 95.0799 17.9783C94.8896 17.8022 94.6154 17.7141 94.2575 17.7141C93.8796 17.7141 93.5799 17.7965 93.3583 17.9612C93.1396 18.126 92.9918 18.3206 92.9151 18.5451L91.4748 18.3405C91.5884 17.9428 91.7759 17.6104 92.0373 17.3434C92.2987 17.0735 92.6183 16.8718 92.9961 16.7382C93.3739 16.6019 93.7915 16.5337 94.2489 16.5337C94.5643 16.5337 94.8782 16.5706 95.1907 16.6445C95.5032 16.7184 95.7887 16.8405 96.0472 17.011C96.3058 17.1786 96.5131 17.4073 96.6694 17.697C96.8285 17.9868 96.908 18.349 96.908 18.7837V23.1644H95.4251V22.2652H95.3739C95.2802 22.447 95.1481 22.6175 94.9776 22.7766C94.81 22.9328 94.5984 23.0593 94.3427 23.1559C94.0898 23.2496 93.793 23.2965 93.4521 23.2965ZM93.8526 22.163C94.1623 22.163 94.4308 22.1019 94.658 21.9797C94.8853 21.8547 95.06 21.6899 95.1822 21.4854C95.3072 21.2809 95.3697 21.0578 95.3697 20.8164V20.0451C95.3214 20.0848 95.239 20.1218 95.1225 20.1559C95.0089 20.1899 94.881 20.2198 94.739 20.2453C94.5969 20.2709 94.4563 20.2936 94.3171 20.3135C94.1779 20.3334 94.0572 20.3505 93.9549 20.3647C93.7248 20.3959 93.5188 20.447 93.337 20.5181C93.1552 20.5891 93.0117 20.6885 92.9066 20.8164C92.8015 20.9414 92.7489 21.1033 92.7489 21.3022C92.7489 21.5862 92.8526 21.8007 93.06 21.9456C93.2674 22.0905 93.5316 22.163 93.8526 22.163Z" fill="#272727"/>
<path d="M103.632 18.349L102.226 18.5024C102.186 18.3604 102.117 18.2269 102.017 18.1019C101.921 17.9769 101.79 17.876 101.625 17.7993C101.461 17.7226 101.259 17.6843 101.02 17.6843C100.699 17.6843 100.429 17.7539 100.211 17.8931C99.9947 18.0323 99.8881 18.2127 99.891 18.4343C99.8881 18.6246 99.9577 18.7794 100.1 18.8987C100.245 19.0181 100.483 19.1161 100.816 19.1928L101.932 19.4314C102.551 19.5649 103.012 19.7766 103.313 20.0664C103.617 20.3561 103.77 20.7354 103.773 21.2041C103.77 21.6161 103.65 21.9797 103.411 22.2951C103.175 22.6076 102.847 22.8519 102.426 23.028C102.006 23.2041 101.523 23.2922 100.978 23.2922C100.176 23.2922 99.5316 23.1246 99.043 22.7894C98.5543 22.4513 98.2631 21.9811 98.1694 21.3789L99.6736 21.234C99.7418 21.5294 99.8867 21.7524 100.108 21.903C100.33 22.0536 100.618 22.1289 100.973 22.1289C101.34 22.1289 101.634 22.0536 101.855 21.903C102.08 21.7524 102.192 21.5664 102.192 21.3448C102.192 21.1573 102.12 21.0024 101.975 20.8803C101.833 20.7581 101.611 20.6644 101.31 20.599L100.194 20.3647C99.5657 20.234 99.1012 20.0138 98.8001 19.7041C98.4989 19.3916 98.3498 18.9968 98.3526 18.5195C98.3498 18.1161 98.4592 17.7666 98.6808 17.4712C98.9052 17.1729 99.2163 16.9428 99.614 16.7809C100.015 16.6161 100.476 16.5337 100.999 16.5337C101.766 16.5337 102.37 16.697 102.81 17.0237C103.253 17.3505 103.527 17.7922 103.632 18.349Z" fill="#272727"/>
<path d="M107.9 23.2922C107.261 23.2922 106.707 23.1516 106.238 22.8703C105.77 22.5891 105.406 22.1956 105.147 21.6899C104.892 21.1843 104.764 20.5934 104.764 19.9172C104.764 19.2411 104.892 18.6487 105.147 18.1402C105.406 17.6317 105.77 17.2368 106.238 16.9556C106.707 16.6743 107.261 16.5337 107.9 16.5337C108.539 16.5337 109.093 16.6743 109.562 16.9556C110.031 17.2368 110.393 17.6317 110.649 18.1402C110.907 18.6487 111.037 19.2411 111.037 19.9172C111.037 20.5934 110.907 21.1843 110.649 21.6899C110.393 22.1956 110.031 22.5891 109.562 22.8703C109.093 23.1516 108.539 23.2922 107.9 23.2922ZM107.909 22.0564C108.255 22.0564 108.545 21.9612 108.778 21.7709C109.011 21.5777 109.184 21.3192 109.298 20.9953C109.414 20.6715 109.473 20.3107 109.473 19.913C109.473 19.5124 109.414 19.1502 109.298 18.8263C109.184 18.4996 109.011 18.2397 108.778 18.0465C108.545 17.8533 108.255 17.7567 107.909 17.7567C107.554 17.7567 107.258 17.8533 107.022 18.0465C106.789 18.2397 106.615 18.4996 106.498 18.8263C106.385 19.1502 106.328 19.5124 106.328 19.913C106.328 20.3107 106.385 20.6715 106.498 20.9953C106.615 21.3192 106.789 21.5777 107.022 21.7709C107.258 21.9612 107.554 22.0564 107.909 22.0564Z" fill="#272727"/>
<path d="M113.296 23.2581C113.038 23.2581 112.816 23.1672 112.631 22.9854C112.447 22.8036 112.356 22.582 112.359 22.3206C112.356 22.0649 112.447 21.8462 112.631 21.6644C112.816 21.4826 113.038 21.3916 113.296 21.3916C113.546 21.3916 113.763 21.4826 113.948 21.6644C114.136 21.8462 114.231 22.0649 114.234 22.3206C114.231 22.4939 114.185 22.6516 114.097 22.7936C114.012 22.9357 113.898 23.0493 113.756 23.1345C113.617 23.2169 113.464 23.2581 113.296 23.2581Z" fill="#272727"/>
<path d="M117.71 23.2965C117.295 23.2965 116.922 23.2226 116.589 23.0749C116.26 22.9243 115.998 22.7027 115.805 22.4101C115.615 22.1175 115.52 21.7567 115.52 21.3277C115.52 20.9584 115.588 20.653 115.724 20.4115C115.86 20.1701 116.047 19.9769 116.282 19.832C116.518 19.6871 116.784 19.5777 117.079 19.5039C117.377 19.4272 117.686 19.3718 118.004 19.3377C118.387 19.2979 118.699 19.2624 118.937 19.2311C119.176 19.197 119.349 19.1459 119.457 19.0777C119.568 19.0067 119.623 18.8973 119.623 18.7496V18.724C119.623 18.403 119.528 18.1544 119.338 17.9783C119.147 17.8022 118.873 17.7141 118.515 17.7141C118.137 17.7141 117.838 17.7965 117.616 17.9612C117.397 18.126 117.25 18.3206 117.173 18.5451L115.733 18.3405C115.846 17.9428 116.034 17.6104 116.295 17.3434C116.556 17.0735 116.876 16.8718 117.254 16.7382C117.632 16.6019 118.049 16.5337 118.507 16.5337C118.822 16.5337 119.136 16.5706 119.449 16.6445C119.761 16.7184 120.047 16.8405 120.305 17.011C120.564 17.1786 120.771 17.4073 120.927 17.697C121.086 17.9868 121.166 18.349 121.166 18.7837V23.1644H119.683V22.2652H119.632C119.538 22.447 119.406 22.6175 119.235 22.7766C119.068 22.9328 118.856 23.0593 118.6 23.1559C118.348 23.2496 118.051 23.2965 117.71 23.2965ZM118.11 22.163C118.42 22.163 118.689 22.1019 118.916 21.9797C119.143 21.8547 119.318 21.6899 119.44 21.4854C119.565 21.2809 119.627 21.0578 119.627 20.8164V20.0451C119.579 20.0848 119.497 20.1218 119.38 20.1559C119.267 20.1899 119.139 20.2198 118.997 20.2453C118.855 20.2709 118.714 20.2936 118.575 20.3135C118.436 20.3334 118.315 20.3505 118.213 20.3647C117.983 20.3959 117.777 20.447 117.595 20.5181C117.413 20.5891 117.27 20.6885 117.164 20.8164C117.059 20.9414 117.007 21.1033 117.007 21.3022C117.007 21.5862 117.11 21.8007 117.318 21.9456C117.525 22.0905 117.789 22.163 118.11 22.163Z" fill="#272727"/>
<path d="M125.572 23.2922C124.933 23.2922 124.379 23.1516 123.91 22.8703C123.441 22.5891 123.078 22.1956 122.819 21.6899C122.564 21.1843 122.436 20.5934 122.436 19.9172C122.436 19.2411 122.564 18.6487 122.819 18.1402C123.078 17.6317 123.441 17.2368 123.91 16.9556C124.379 16.6743 124.933 16.5337 125.572 16.5337C126.211 16.5337 126.765 16.6743 127.234 16.9556C127.703 17.2368 128.065 17.6317 128.321 18.1402C128.579 18.6487 128.708 19.2411 128.708 19.9172C128.708 20.5934 128.579 21.1843 128.321 21.6899C128.065 22.1956 127.703 22.5891 127.234 22.8703C126.765 23.1516 126.211 23.2922 125.572 23.2922ZM125.581 22.0564C125.927 22.0564 126.217 21.9612 126.45 21.7709C126.683 21.5777 126.856 21.3192 126.97 20.9953C127.086 20.6715 127.145 20.3107 127.145 19.913C127.145 19.5124 127.086 19.1502 126.97 18.8263C126.856 18.4996 126.683 18.2397 126.45 18.0465C126.217 17.8533 125.927 17.7567 125.581 17.7567C125.226 17.7567 124.93 17.8533 124.694 18.0465C124.461 18.2397 124.287 18.4996 124.17 18.8263C124.056 19.1502 124 19.5124 124 19.913C124 20.3107 124.056 20.6715 124.17 20.9953C124.287 21.3192 124.461 21.5777 124.694 21.7709C124.93 21.9612 125.226 22.0564 125.581 22.0564Z" fill="#272727"/>
</svg>
