<svg width="120" height="29" viewBox="0 0 120 29" fill="none" xmlns="http://www.w3.org/2000/svg">
<path d="M0.866346 2.85861C0.584488 3.14554 0.421371 3.59225 0.421371 4.17077V24.806C0.421371 25.3845 0.584488 25.8312 0.866346 26.1182L0.935911 26.1812L12.8267 14.6225V14.3496L0.935911 2.79096L0.866346 2.85861Z" fill="url(#paint0_linear_37_691)"/>
<path d="M16.7858 18.4771L12.8266 14.6222V14.3493L16.7906 10.4945L16.8794 10.5446L21.5738 13.1421C22.9136 13.8793 22.9136 15.0923 21.5738 15.8341L16.8794 18.4269L16.7858 18.4771Z" fill="url(#paint1_linear_37_691)"/>
<path d="M16.8795 18.427L12.8267 14.4859L0.866348 26.118C1.31132 26.5729 2.03696 26.6277 2.86214 26.1728L16.8795 18.427Z" fill="url(#paint2_linear_37_691)"/>
<path d="M16.8795 10.5447L2.86214 2.79891C2.03696 2.3487 1.31132 2.40352 0.866348 2.8584L12.8267 14.4858L16.8795 10.5447Z" fill="url(#paint3_linear_37_691)"/>
<path d="M59.5317 1.72852C59.8025 1.72852 60.0213 1.77439 60.188 1.86523C60.3547 1.95425 60.4848 2.05842 60.5776 2.17773C60.6723 2.297 60.7453 2.40229 60.7964 2.49316H60.8589V1.78613H61.6909V6.24609C61.6909 6.6208 61.6042 6.92852 61.4302 7.16895C61.2559 7.40948 61.0195 7.58759 60.7222 7.70312C60.4267 7.81863 60.0933 7.87695 59.7222 7.87695C59.3757 7.87694 59.0776 7.83108 58.8276 7.74023C58.5796 7.64935 58.3764 7.52945 58.2192 7.37988C58.062 7.23026 57.9453 7.06573 57.8677 6.8877L58.5972 6.58691C58.6483 6.67023 58.717 6.7578 58.8022 6.85059C58.8893 6.94525 59.0062 7.0265 59.1538 7.09277C59.3034 7.15906 59.4961 7.19238 59.731 7.19238C60.0528 7.19237 60.3186 7.11314 60.5288 6.95605C60.739 6.80077 60.8442 6.55275 60.8442 6.21191V5.35352H60.7905C60.7394 5.44627 60.6654 5.54953 60.5688 5.66309C60.4742 5.77666 60.3438 5.87568 60.1772 5.95898C60.0106 6.04232 59.7929 6.08398 59.5259 6.08398C59.1814 6.08392 58.8706 6.00369 58.5942 5.84277C58.3197 5.67993 58.1019 5.4402 57.9409 5.12402C57.7818 4.80584 57.7026 4.41421 57.7026 3.9502C57.7027 3.48628 57.7808 3.08822 57.938 2.75684C58.097 2.42564 58.315 2.17218 58.5913 1.99609C58.8678 1.81811 59.1815 1.72856 59.5317 1.72852ZM37.4741 1.72852C37.6484 1.72852 37.8337 1.74935 38.0288 1.79102C38.2256 1.8308 38.4092 1.90483 38.5796 2.0127C38.7518 2.12056 38.8926 2.27507 39.0024 2.47559C39.1123 2.67445 39.1675 2.93377 39.1675 3.25195V6.14941H38.3384V5.55273H38.3042C38.2493 5.66258 38.167 5.77089 38.0571 5.87695C37.9473 5.98299 37.8056 6.07056 37.6333 6.14062C37.461 6.21065 37.2546 6.24609 37.0142 6.24609C36.7377 6.24608 36.4876 6.19502 36.2642 6.09277C36.0407 5.98861 35.8636 5.83759 35.7329 5.64062C35.6042 5.44368 35.5396 5.20194 35.5396 4.91602C35.5396 4.66996 35.5875 4.46761 35.6821 4.30859C35.7768 4.14963 35.9041 4.02345 36.0649 3.93066C36.2259 3.8379 36.4062 3.76805 36.605 3.7207C36.8038 3.67335 37.0069 3.63693 37.2134 3.6123C37.4745 3.58203 37.6863 3.55701 37.8491 3.53809C38.0119 3.51727 38.1307 3.48485 38.2046 3.43945C38.2784 3.39404 38.3149 3.31988 38.3149 3.21777V3.19727C38.3149 2.94933 38.2451 2.7574 38.105 2.62109C37.9667 2.48473 37.7605 2.41602 37.4858 2.41602C37.2001 2.41602 36.9748 2.47973 36.8101 2.60645C36.6472 2.73145 36.5337 2.871 36.4712 3.02441L35.6733 2.84277C35.768 2.57762 35.9066 2.36307 36.0884 2.2002C36.2719 2.03566 36.4829 1.91661 36.7212 1.84277C36.9597 1.76705 37.211 1.72855 37.4741 1.72852ZM55.0679 1.72852C55.2421 1.72852 55.4275 1.74935 55.6226 1.79102C55.8194 1.8308 56.003 1.90483 56.1733 2.0127C56.3455 2.12056 56.4864 2.27507 56.5962 2.47559C56.706 2.67445 56.7612 2.93377 56.7612 3.25195V6.14941H55.9321V5.55273H55.8979C55.843 5.66258 55.7607 5.77089 55.6509 5.87695C55.541 5.98299 55.3994 6.07056 55.2271 6.14062C55.0547 6.21065 54.8484 6.24609 54.6079 6.24609C54.3314 6.24608 54.0814 6.19502 53.8579 6.09277C53.6344 5.98861 53.4573 5.83759 53.3267 5.64062C53.1979 5.44368 53.1333 5.20194 53.1333 4.91602C53.1333 4.66996 53.1812 4.46761 53.2759 4.30859C53.3705 4.14963 53.4979 4.02345 53.6587 3.93066C53.8196 3.8379 54 3.76805 54.1987 3.7207C54.3976 3.67335 54.6007 3.63693 54.8071 3.6123C55.0682 3.58203 55.2801 3.55701 55.4429 3.53809C55.6056 3.51727 55.7245 3.48485 55.7983 3.43945C55.8721 3.39404 55.9086 3.31988 55.9087 3.21777V3.19727C55.9086 2.94933 55.8388 2.7574 55.6987 2.62109C55.5605 2.48473 55.3542 2.41602 55.0796 2.41602C54.7938 2.41602 54.5686 2.47972 54.4038 2.60645C54.2409 2.73145 54.1274 2.871 54.0649 3.02441L53.2671 2.84277C53.3618 2.57762 53.5003 2.36307 53.6821 2.2002C53.8657 2.03566 54.0766 1.91661 54.3149 1.84277C54.5535 1.76705 54.8047 1.72855 55.0679 1.72852ZM72.4116 1.72852C72.5859 1.72852 72.7712 1.74935 72.9663 1.79102C73.1631 1.8308 73.3467 1.90483 73.5171 2.0127C73.6893 2.12056 73.8301 2.27507 73.9399 2.47559C74.0498 2.67445 74.105 2.93377 74.105 3.25195V6.14941H73.2759V5.55273H73.2417C73.1868 5.66258 73.1045 5.77089 72.9946 5.87695C72.8848 5.98299 72.7431 6.07056 72.5708 6.14062C72.3985 6.21065 72.1921 6.24609 71.9517 6.24609C71.6752 6.24608 71.4251 6.19502 71.2017 6.09277C70.9782 5.98861 70.8011 5.83759 70.6704 5.64062C70.5417 5.44368 70.4771 5.20194 70.4771 4.91602C70.4771 4.66997 70.525 4.46761 70.6196 4.30859C70.7143 4.14963 70.8416 4.02345 71.0024 3.93066C71.1634 3.8379 71.3437 3.76805 71.5425 3.7207C71.7413 3.67335 71.9444 3.63693 72.1509 3.6123C72.412 3.58203 72.6238 3.55701 72.7866 3.53809C72.9494 3.51727 73.0682 3.48485 73.1421 3.43945C73.2159 3.39404 73.2524 3.31988 73.2524 3.21777V3.19727C73.2524 2.94933 73.1826 2.7574 73.0425 2.62109C72.9042 2.48473 72.698 2.41602 72.4233 2.41602C72.1376 2.41602 71.9123 2.47973 71.7476 2.60645C71.5847 2.73145 71.4712 2.871 71.4087 3.02441L70.6108 2.84277C70.7055 2.57762 70.8441 2.36307 71.0259 2.2002C71.2094 2.03566 71.4204 1.91661 71.6587 1.84277C71.8972 1.76705 72.1485 1.72855 72.4116 1.72852ZM48.3462 1.72852C48.5924 1.72852 48.8319 1.76915 49.063 1.85059C49.2939 1.93203 49.5014 2.0602 49.6851 2.23438C49.8687 2.40855 50.0136 2.63486 50.1196 2.91309C50.2257 3.18957 50.2788 3.5261 50.2788 3.92188V4.22363H47.1792C47.1858 4.48938 47.2344 4.71788 47.3296 4.9082C47.4337 5.11259 47.5787 5.26906 47.7642 5.37695C47.9497 5.48293 48.1666 5.5361 48.4146 5.53613C48.5754 5.53613 48.7225 5.51317 48.855 5.46777C48.9876 5.42042 49.1021 5.34964 49.1987 5.25684C49.2953 5.16405 49.3693 5.0494 49.4204 4.91309L50.2241 5.05859C50.1597 5.29521 50.044 5.50271 49.8774 5.68066C49.7127 5.85666 49.5052 5.99434 49.2554 6.09277C49.0075 6.18921 48.7246 6.23726 48.4067 6.2373C47.9768 6.2373 47.606 6.14563 47.2954 5.96191C46.9867 5.77633 46.7481 5.51584 46.5796 5.18066C46.413 4.8436 46.3296 4.44865 46.3296 3.99609C46.3296 3.54926 46.413 3.15529 46.5796 2.81445C46.7481 2.47364 46.9827 2.2069 47.2837 2.01562C47.5866 1.8244 47.9411 1.72858 48.3462 1.72852ZM64.6685 1.72852C65.0775 1.72853 65.4348 1.82228 65.7397 2.00977C66.0446 2.19726 66.2812 2.46084 66.4497 2.7998C66.6183 3.13881 66.7026 3.53467 66.7026 3.9873C66.7026 4.43796 66.6182 4.83187 66.4497 5.16895C66.2812 5.50596 66.0445 5.76857 65.7397 5.95605C65.4348 6.14354 65.0775 6.23729 64.6685 6.2373C64.2594 6.2373 63.9021 6.14355 63.5972 5.95605C63.2923 5.76856 63.0557 5.50602 62.8872 5.16895C62.7187 4.83185 62.6343 4.438 62.6343 3.9873C62.6343 3.53467 62.7187 3.13881 62.8872 2.7998C63.0558 2.46083 63.2923 2.19725 63.5972 2.00977C63.9021 1.82227 64.2594 1.72852 64.6685 1.72852ZM75.8413 5.06934C75.9947 5.06934 76.128 5.12556 76.2397 5.2373C76.3513 5.34705 76.4077 5.47967 76.4097 5.63477C76.4078 5.73886 76.3806 5.8348 76.3276 5.92188C76.2765 6.0071 76.2078 6.07582 76.1226 6.12695C76.0374 6.17792 75.9434 6.20312 75.8413 6.20312C75.6843 6.20305 75.5497 6.14786 75.438 6.03809C75.3265 5.92641 75.272 5.79181 75.2739 5.63477C75.2721 5.47964 75.3264 5.34706 75.438 5.2373C75.5497 5.12564 75.6843 5.06942 75.8413 5.06934ZM32.7085 0.331055C33.1214 0.331055 33.464 0.399769 33.7349 0.536133C34.0054 0.670576 34.2079 0.853083 34.3423 1.08398C34.4767 1.31312 34.5444 1.57155 34.5444 1.85938C34.5444 2.1018 34.4997 2.30697 34.4106 2.47363C34.3216 2.63825 34.2018 2.77078 34.0522 2.87109C33.9046 2.96946 33.7419 3.04149 33.564 3.08691V3.14355C33.7571 3.15303 33.9457 3.21553 34.1294 3.33105C34.315 3.44469 34.4682 3.60718 34.5894 3.81738C34.7105 4.02755 34.771 4.28299 34.771 4.58398C34.771 4.88123 34.7011 5.14808 34.561 5.38477C34.4229 5.61949 34.209 5.8061 33.9194 5.94434C33.6297 6.0807 33.2589 6.14941 32.8081 6.14941H30.5786V0.331055H32.7085ZM41.1489 6.14941H40.2993V1.78613H41.1489V6.14941ZM43.9243 3.48438L44.896 1.78613H45.8257L44.4644 3.96777L45.8364 6.14941H44.9077L43.9243 4.51855L42.9448 6.14941H42.0132L43.3706 3.96777L42.0298 1.78613H42.9614L43.9243 3.48438ZM69.813 1.72559C69.8866 1.72937 69.9443 1.73456 69.9858 1.74023V2.55273C69.9518 2.54327 69.8912 2.53284 69.8042 2.52148C69.7171 2.50823 69.6296 2.50195 69.5425 2.50195C69.3418 2.50198 69.1625 2.54468 69.0054 2.62988C68.8503 2.71317 68.727 2.82912 68.6362 2.97852C68.5453 3.12621 68.5005 3.29504 68.5005 3.48438V6.14941H67.6509V1.78613H68.4712V2.47852H68.5171C68.5967 2.2438 68.7373 2.05922 68.938 1.9248C69.1406 1.78859 69.3699 1.7207 69.6255 1.7207C69.6784 1.72071 69.7412 1.72181 69.813 1.72559ZM38.3179 4.0127C38.2876 4.04298 38.2292 4.07214 38.1421 4.09863C38.0569 4.12324 37.9589 4.14416 37.8491 4.16309C37.7395 4.1801 37.6328 4.19679 37.5288 4.21191C37.4246 4.22517 37.3372 4.23662 37.2671 4.24609C37.1023 4.26693 36.9513 4.30134 36.8149 4.35059C36.6806 4.39982 36.5731 4.47171 36.4917 4.56445C36.4122 4.65535 36.3726 4.77629 36.3726 4.92773C36.3726 5.13794 36.4497 5.29733 36.605 5.40527C36.7602 5.51129 36.9583 5.56443 37.1987 5.56445C37.4336 5.56445 37.6346 5.51761 37.8013 5.4248C37.9698 5.33202 38.098 5.21108 38.1851 5.06152C38.2741 4.91001 38.3179 4.74754 38.3179 4.5752V4.0127ZM55.9116 4.0127C55.8813 4.04298 55.8229 4.07214 55.7358 4.09863C55.6506 4.12324 55.5527 4.14416 55.4429 4.16309C55.3332 4.1801 55.2265 4.19679 55.1226 4.21191C55.0184 4.22517 54.9309 4.23662 54.8608 4.24609C54.6961 4.26693 54.5451 4.30134 54.4087 4.35059C54.2743 4.39982 54.1668 4.47171 54.0854 4.56445C54.006 4.65535 53.9663 4.77629 53.9663 4.92773C53.9663 5.13794 54.0434 5.29733 54.1987 5.40527C54.354 5.51129 54.552 5.56443 54.7925 5.56445C55.0273 5.56445 55.2284 5.51761 55.395 5.4248C55.5635 5.33202 55.6917 5.21108 55.7788 5.06152C55.8678 4.91001 55.9116 4.74754 55.9116 4.5752V4.0127ZM73.2554 4.0127C73.2251 4.04298 73.1667 4.07213 73.0796 4.09863C72.9944 4.12324 72.8964 4.14416 72.7866 4.16309C72.677 4.1801 72.5703 4.19679 72.4663 4.21191C72.3621 4.22517 72.2747 4.23662 72.2046 4.24609C72.0398 4.26693 71.8888 4.30134 71.7524 4.35059C71.6181 4.39982 71.5106 4.47171 71.4292 4.56445C71.3497 4.65535 71.3101 4.77629 71.3101 4.92773C71.3101 5.13794 71.3872 5.29733 71.5425 5.40527C71.6977 5.51129 71.8958 5.56443 72.1362 5.56445C72.3711 5.56445 72.5721 5.51761 72.7388 5.4248C72.9073 5.33202 73.0355 5.21108 73.1226 5.06152C73.2116 4.91001 73.2554 4.74754 73.2554 4.5752V4.0127ZM64.6714 2.43945C64.4043 2.43945 64.1825 2.5103 64.0063 2.65234C63.8322 2.79437 63.7029 2.98299 63.6177 3.21777C63.5344 3.45066 63.4927 3.70607 63.4927 3.98438C63.4927 4.26468 63.5343 4.52193 63.6177 4.75488C63.7029 4.98757 63.8322 5.17442 64.0063 5.31445C64.1825 5.45453 64.4044 5.52441 64.6714 5.52441C64.9364 5.52438 65.1564 5.45456 65.3306 5.31445C65.5047 5.17441 65.633 4.98759 65.7163 4.75488C65.8015 4.52193 65.8442 4.26468 65.8442 3.98438C65.8442 3.70608 65.8015 3.45065 65.7163 3.21777C65.633 2.98305 65.5047 2.79436 65.3306 2.65234C65.1564 2.51033 64.9365 2.43949 64.6714 2.43945ZM31.4556 5.39648H32.7231C33.1435 5.39647 33.4447 5.31515 33.6265 5.15234C33.8083 4.98946 33.8989 4.78533 33.8989 4.54102C33.8989 4.35762 33.8528 4.18933 33.7603 4.03613C33.6675 3.88272 33.5342 3.75985 33.3618 3.66895C33.1915 3.5782 32.989 3.53322 32.7544 3.5332H31.4556V5.39648ZM59.7134 2.4502C59.4579 2.45027 59.2451 2.51691 59.0747 2.64941C58.9043 2.7801 58.7751 2.95821 58.688 3.18359C58.6028 3.4089 58.5601 3.66116 58.5601 3.93945C58.5601 4.22527 58.6038 4.47657 58.6909 4.69238C58.778 4.90811 58.9073 5.07612 59.0776 5.19727C59.2499 5.31841 59.4617 5.37981 59.7134 5.37988C59.9577 5.37988 60.1649 5.32262 60.3335 5.20898C60.5038 5.09351 60.6322 4.92863 60.7192 4.71484C60.8082 4.49903 60.853 4.24042 60.853 3.93945C60.853 3.64589 60.8093 3.38657 60.7222 3.16309C60.635 2.93979 60.5068 2.76555 60.3384 2.64062C60.1699 2.5139 59.9613 2.4502 59.7134 2.4502ZM76.2339 4.47559H75.4468L75.3726 0.331055H76.3071L76.2339 4.47559ZM48.3521 2.43066C48.1135 2.43071 47.905 2.48906 47.7271 2.60645C47.551 2.72197 47.4144 2.87405 47.3179 3.06152C47.2349 3.22423 47.1904 3.39947 47.1802 3.58691H49.4458C49.4458 3.36354 49.4009 3.16545 49.3101 2.99316C49.2192 2.81894 49.091 2.68143 48.9263 2.58105C48.7634 2.48068 48.5717 2.43066 48.3521 2.43066ZM31.4556 2.84863H32.6323C32.8292 2.84861 33.0064 2.81011 33.1636 2.73438C33.3226 2.65862 33.4487 2.55232 33.5415 2.41602C33.636 2.27784 33.6831 2.11506 33.6831 1.92773C33.6831 1.6872 33.5987 1.48514 33.4302 1.32227C33.2616 1.15957 33.0031 1.07812 32.6548 1.07812H31.4556V2.84863ZM40.728 0.0986328C40.8757 0.0986361 41.0018 0.148648 41.106 0.249023C41.2118 0.347419 41.2651 0.466482 41.2651 0.606445C41.2651 0.744703 41.212 0.864465 41.106 0.964844C41.0018 1.06329 40.8757 1.1123 40.728 1.1123C40.5803 1.1123 40.4532 1.06331 40.3472 0.964844C40.243 0.864465 40.1909 0.744703 40.1909 0.606445C40.191 0.466498 40.2432 0.347412 40.3472 0.249023C40.4532 0.148645 40.5803 0.0986328 40.728 0.0986328Z" fill="#272727"/>
<path d="M59.0223 16.5746C56.5566 16.5746 54.5424 18.3588 54.5424 20.8205C54.5424 23.2623 56.5566 25.0652 59.0223 25.0652C61.4932 25.0652 63.5075 23.2623 63.5075 20.8205C63.5075 18.3588 61.4932 16.5746 59.0223 16.5746ZM59.0223 23.3933C57.6694 23.3933 56.5055 22.3315 56.5055 20.8205C56.5055 19.2896 57.6694 18.2465 59.0223 18.2465C60.3752 18.2465 61.5444 19.2896 61.5444 20.8205C61.5444 22.3315 60.3752 23.3933 59.0223 23.3933ZM49.2476 16.5746C46.7767 16.5746 44.7676 18.3588 44.7676 20.8205C44.7676 23.2623 46.7767 25.0652 49.2476 25.0652C51.7172 25.0652 53.7275 23.2623 53.7275 20.8205C53.7275 18.3588 51.7172 16.5746 49.2476 16.5746ZM49.2476 23.3933C47.8934 23.3933 46.7255 22.3315 46.7255 20.8205C46.7255 19.2896 47.8934 18.2465 49.2476 18.2465C50.6005 18.2465 51.7644 19.2896 51.7644 20.8205C51.7644 22.3315 50.6005 23.3933 49.2476 23.3933ZM37.616 17.8759V19.6801H42.1471C42.0146 20.6883 41.6603 21.4294 41.117 21.9459C40.4557 22.5698 39.4256 23.2623 37.616 23.2623C34.8276 23.2623 32.644 21.1225 32.644 18.4711C32.644 15.8197 34.8276 13.6799 37.616 13.6799C39.1238 13.6799 40.2208 14.2401 41.0304 14.9663L42.3676 13.6949C41.2352 12.6668 39.7287 11.877 37.616 11.877C33.7922 11.877 30.5786 14.8353 30.5786 18.4711C30.5786 22.1069 33.7922 25.0652 37.616 25.0652C39.6828 25.0652 41.2351 24.4214 42.4555 23.2136C43.7061 22.0245 44.0958 20.3526 44.0958 19.0026C44.0958 18.5834 44.059 18.1978 43.9934 17.8759H37.616ZM85.1788 19.2746C84.81 18.3251 83.6723 16.5746 81.355 16.5746C79.0586 16.5746 77.1467 18.2952 77.1467 20.8205C77.1467 23.1986 79.0389 25.0652 81.5754 25.0652C83.6264 25.0652 84.81 23.8761 85.2969 23.1837L83.7747 22.2192C83.2669 22.9254 82.5753 23.3933 81.5754 23.3933C80.5821 23.3933 79.8695 22.9603 79.4129 22.1069L85.3848 19.7575L85.1788 19.2746ZM79.0901 20.6883C79.0389 19.0513 80.4272 18.2128 81.4219 18.2128C82.2013 18.2128 82.8627 18.5834 83.0832 19.1137L79.0901 20.6883ZM74.2362 24.8069H76.1992V12.3299H74.2362V24.8069ZM71.0212 17.5203H70.9556C70.5147 17.0237 69.6736 16.5746 68.6081 16.5746C66.372 16.5746 64.3276 18.4411 64.3276 20.8342C64.3276 23.2136 66.372 25.0652 68.6081 25.0652C69.6736 25.0652 70.5147 24.6123 70.9556 24.1007H71.0212V24.7096C71.0212 26.3329 70.1092 27.205 68.6382 27.205C67.4389 27.205 66.6948 26.3815 66.3878 25.6891L64.6806 26.3666C65.1727 27.492 66.4757 28.877 68.6382 28.877C70.9399 28.877 72.882 27.5893 72.882 24.4563V16.8328H71.0212V17.5203ZM68.776 23.3933C67.4231 23.3933 66.2907 22.3165 66.2907 20.8342C66.2907 19.3382 67.4231 18.2465 68.776 18.2465C70.1092 18.2465 71.1603 19.3382 71.1603 20.8342C71.1603 22.3165 70.1092 23.3933 68.776 23.3933ZM94.3696 12.3299H89.6744V24.8069H91.6323V20.0794H94.3696C96.5439 20.0794 98.6763 18.5834 98.6763 16.204C98.6763 13.8259 96.5387 12.3299 94.3696 12.3299ZM94.4207 18.3438H91.6323V14.0654H94.4207C95.8825 14.0654 96.7171 15.2196 96.7171 16.204C96.7171 17.1697 95.8825 18.3438 94.4207 18.3438ZM106.523 16.5509C105.109 16.5509 103.638 17.1448 103.033 18.4611L104.77 19.1536C105.144 18.4611 105.832 18.2365 106.559 18.2365C107.574 18.2365 108.605 18.8167 108.62 19.8411V19.9721C108.266 19.7774 107.508 19.4892 106.575 19.4892C104.703 19.4892 102.797 20.4687 102.797 22.2966C102.797 23.9685 104.329 25.0452 106.052 25.0452C107.37 25.0452 108.097 24.48 108.553 23.8225H108.62V24.787H110.511V20.0008C110.511 17.7886 108.774 16.5509 106.523 16.5509ZM106.287 23.3883C105.647 23.3883 104.754 23.0863 104.754 22.3315C104.754 21.3658 105.867 20.9952 106.83 20.9952C107.693 20.9952 108.097 21.1761 108.62 21.4144C108.467 22.5698 107.421 23.3883 106.287 23.3883ZM117.4 16.8241L115.15 22.2329H115.083L112.756 16.8241H110.645L114.141 24.3827L112.146 28.5887H114.192L119.579 16.8241H117.4ZM99.7523 24.8069H101.715V12.3299H99.7523V24.8069Z" fill="#272727"/>
<defs>
<linearGradient id="paint0_linear_37_691" x1="11.7709" y1="25.0209" x2="-3.88241" y2="8.92422" gradientUnits="userSpaceOnUse">
<stop stop-color="#00A0FF"/>
<stop offset="0.0066" stop-color="#00A1FF"/>
<stop offset="0.2601" stop-color="#00BEFF"/>
<stop offset="0.5122" stop-color="#00D2FF"/>
<stop offset="0.7604" stop-color="#00DFFF"/>
<stop offset="1" stop-color="#00E3FF"/>
</linearGradient>
<linearGradient id="paint1_linear_37_691" x1="23.3184" y1="14.4845" x2="0.101072" y2="14.4845" gradientUnits="userSpaceOnUse">
<stop stop-color="#FFE000"/>
<stop offset="0.4087" stop-color="#FFBD00"/>
<stop offset="0.7754" stop-color="#FFA500"/>
<stop offset="1" stop-color="#FF9C00"/>
</linearGradient>
<linearGradient id="paint2_linear_37_691" x1="14.6757" y1="12.3434" x2="-6.55152" y2="-9.48501" gradientUnits="userSpaceOnUse">
<stop stop-color="#FF3A44"/>
<stop offset="1" stop-color="#C31162"/>
</linearGradient>
<linearGradient id="paint3_linear_37_691" x1="-2.14432" y1="32.9832" x2="7.33458" y2="23.2359" gradientUnits="userSpaceOnUse">
<stop stop-color="#32A071"/>
<stop offset="0.0685" stop-color="#2DA771"/>
<stop offset="0.4762" stop-color="#15CF74"/>
<stop offset="0.8009" stop-color="#06E775"/>
<stop offset="1" stop-color="#00F076"/>
</linearGradient>
</defs>
</svg>
